<?xml version="1.0" standalone="no"?>
<!DOCTYPE svg PUBLIC "-//W3C//DTD SVG 1.1//EN" "http://www.w3.org/Graphics/SVG/1.1/DTD/svg11.dtd" >
<svg xmlns="http://www.w3.org/2000/svg">
<metadata></metadata>
<defs>
<font id="guess_sansmedium" horiz-adv-x="1751" >
<font-face units-per-em="2048" ascent="1638" descent="-410" />
<missing-glyph horiz-adv-x="630" />
<glyph horiz-adv-x="0" />
<glyph horiz-adv-x="682" />
<glyph unicode=" "  horiz-adv-x="630" />
<glyph unicode="&#x09;" horiz-adv-x="630" />
<glyph unicode="&#xa0;" horiz-adv-x="630" />
<glyph unicode="!" horiz-adv-x="681" d="M231 94q0 51 34 87t81 36q48 0 82.5 -36t34.5 -87t-34.5 -86t-82.5 -35t-81.5 35t-33.5 86zM252 1497h190l-16 -1143h-158z" />
<glyph unicode="&#x22;" horiz-adv-x="690" d="M133 1491h172l-8 -463h-158zM424 1491h172l-6 -463h-160z" />
<glyph unicode="#" horiz-adv-x="1468" d="M98 403l45 158h217l97 344h-236l43 158h238l127 444h172l-127 -444h311l127 444h172l-127 -444h213l-41 -158h-217l-96 -344h246l-48 -158h-243l-119 -417h-172l119 417h-312l-118 -417h-172l118 417h-217zM532 561h312l96 344h-311z" />
<glyph unicode="$" horiz-adv-x="1048" d="M61 225l127 107q110 -153 261 -180v567q-58 27 -98.5 50t-87 59t-74.5 75t-47 94.5t-19 120.5q0 139 88.5 249.5t237.5 137.5v135h157v-133q180 -31 312 -184l-115 -109q-97 100 -197 125v-516q48 -22 77.5 -36.5t73 -39t70.5 -46.5t57.5 -54t48 -66t29 -79t11.5 -96 q0 -146 -101.5 -266.5t-265.5 -151.5v-140h-157v136q-229 30 -388 241zM291 1122q0 -133 158 -221v434q-74 -24 -116 -83.5t-42 -129.5zM606 158q91 27 146 97.5t55 150.5q0 81 -52 135.5t-149 103.5v-487z" />
<glyph unicode="%" horiz-adv-x="1648" d="M78 1169q0 143 102 246t246 103q145 0 246.5 -102t101.5 -247t-102.5 -246.5t-245.5 -101.5q-145 0 -246.5 101.5t-101.5 246.5zM127 0l1182 1491h194l-1179 -1491h-197zM221 1169q0 -86 60 -145t145 -59t145 59t60 145q0 85 -60 145t-145 60q-86 0 -145.5 -60 t-59.5 -145zM872 330q0 145 102.5 246.5t248.5 101.5q145 0 246.5 -101.5t101.5 -246.5q0 -144 -102.5 -246t-245.5 -102q-145 0 -248 102t-103 246zM1016 330q0 -85 60.5 -145t146.5 -60q85 0 144.5 60t59.5 145q0 86 -59.5 145.5t-144.5 59.5q-86 0 -146.5 -60t-60.5 -145 z" />
<glyph unicode="&#x26;" horiz-adv-x="1339" d="M53 416q0 70 20 134t57.5 119t79 98.5t97.5 90.5q-76 152 -76 297q0 164 100.5 264.5t254.5 100.5q131 0 215 -77.5t84 -189.5q0 -29 -6.5 -57t-14.5 -51t-26.5 -49.5t-31 -44.5t-40.5 -44t-43 -39.5t-50.5 -40t-50 -37t-54 -38.5t-52.5 -37q162 -244 461 -457 q83 136 80 314h162q0 -237 -107 -404q107 -65 234 -123l-66 -149q-122 54 -272 147q-89 -83 -204.5 -126.5t-240.5 -43.5q-232 0 -371 127.5t-139 315.5zM223 418q0 -123 92.5 -206t251.5 -83q174 0 305 107q-309 227 -483 481q-166 -142 -166 -299zM391 1157q0 -97 47 -203 q147 104 190 142q92 85 93 157q0 50 -41 80.5t-98 30.5q-86 0 -138.5 -55.5t-52.5 -151.5z" />
<glyph unicode="'" horiz-adv-x="397" d="M113 1491h172l-6 -463h-160z" />
<glyph unicode="(" horiz-adv-x="843" d="M115 741q0 288 123 561.5t362 493.5l88 -108q-391 -445 -391 -947q0 -500 391 -944l-82 -112q-243 222 -367 494.5t-124 561.5z" />
<glyph unicode=")" horiz-adv-x="843" d="M156 -203q393 446 393 944q0 500 -393 947l88 108q240 -220 362.5 -493t122.5 -562t-124 -561.5t-367 -494.5z" />
<glyph unicode="*" horiz-adv-x="749" d="M84 1063l188 119l-188 121l63 94l172 -111v205h113v-205l174 111l60 -94l-187 -121l187 -119l-60 -96l-174 112v-207h-113v207l-172 -110z" />
<glyph unicode="+" horiz-adv-x="886" d="M111 694v154h262v262h153v-262h262v-154h-262v-260h-153v260h-262z" />
<glyph unicode="," horiz-adv-x="610" d="M180 98q0 48 34 84.5t91 36.5q52 0 88.5 -35.5t36.5 -91.5q0 -64 -47.5 -128.5t-151.5 -113.5l-32 70q58 35 77 66q-44 7 -70 38.5t-26 73.5z" />
<glyph unicode="-" horiz-adv-x="841" d="M119 688v164h604v-164h-604z" />
<glyph unicode="." horiz-adv-x="538" d="M147 94q0 51 36 87t87 36q50 0 85.5 -36t35.5 -87t-35.5 -86t-85.5 -35q-51 0 -87 35t-36 86z" />
<glyph unicode="/" horiz-adv-x="1089" d="M25 -18l860 1529h180l-862 -1529h-178z" />
<glyph unicode="0" horiz-adv-x="1167" d="M98 748q0 120 18 231t56.5 210t94.5 172.5t137 116t178 42.5q98 0 179.5 -42.5t137.5 -116t95 -172.5t57 -210t18 -231t-18 -231.5t-57 -211t-95 -173t-137.5 -116.5t-179.5 -43q-97 0 -177.5 43t-136.5 116t-95 172.5t-57 211t-18 232.5zM276 748q0 -115 16.5 -219 t51 -194t95.5 -143t143 -53t144 53.5t97 143.5t51.5 193.5t16.5 218.5t-16.5 218.5t-51.5 192.5t-97 142t-144 53q-81 0 -142.5 -53t-96 -142.5t-51 -192.5t-16.5 -218z" />
<glyph unicode="1" horiz-adv-x="696" d="M35 1092l500 430v-1522h-177v1157l-231 -201z" />
<glyph unicode="2" horiz-adv-x="960" d="M47 0q56 88 155 243q299 466 384.5 622t85.5 259q0 96 -61 159t-148 63q-72 0 -135 -46.5t-99 -132.5l-141 82q58 129 161.5 200t225.5 71q157 0 267 -111t110 -276q0 -36 -4.5 -70.5t-18.5 -76.5t-26.5 -74.5t-43 -88.5t-52 -93.5t-69.5 -113.5t-79.5 -125t-98 -152 t-110.5 -171h537v-168h-840z" />
<glyph unicode="3" horiz-adv-x="970" d="M35 244l141 84q40 -83 114.5 -132t166.5 -49q128 0 210.5 80.5t82.5 206.5q0 120 -78.5 195.5t-200.5 75.5h-162v165h103l8 -2v2h47q104 0 173 70t69 172q0 103 -67 168.5t-171 65.5q-83 0 -146.5 -45.5t-88.5 -120.5l-140 65q45 127 151.5 201t239.5 74 q173 0 286.5 -111t113.5 -285q0 -99 -47 -186t-129 -141q100 -57 157.5 -153.5t57.5 -215.5q0 -198 -130.5 -326.5t-332.5 -128.5q-135 0 -251 73.5t-177 197.5z" />
<glyph unicode="4" horiz-adv-x="1036" d="M31 324v90l798 1083v-1016h103v-157h-103v-324h-170v324h-628zM268 481h391v551z" />
<glyph unicode="5" horiz-adv-x="950" d="M39 154l119 112q51 -58 119.5 -89.5t142.5 -31.5q128 0 218.5 90.5t90.5 217.5q0 132 -83.5 215.5t-211.5 85.5q-28 1 -54.5 -3.5t-51.5 -13.5t-40 -16t-37.5 -19t-27.5 -14l-92 43l113 760h565v-166h-422l-65 -440q68 24 141 24q189 0 316.5 -130.5t127.5 -325.5 q0 -131 -64.5 -241.5t-175 -174.5t-241.5 -64q-110 0 -211 47.5t-176 133.5z" />
<glyph unicode="6" horiz-adv-x="1044" d="M82 446q0 140 88 323.5t403 721.5h195q-303 -516 -354 -610q58 18 127 18q192 0 321 -137t129 -324q-2 -194 -134.5 -329.5t-321.5 -135.5q-90 0 -173 36t-144.5 98t-98.5 150.5t-37 188.5zM252 449q0 -126 82 -215t201 -89t202 85.5t82 207.5q0 120 -79.5 209.5 t-204.5 89.5q-102 0 -180.5 -69.5t-100.5 -171.5q-2 -16 -2 -47z" />
<glyph unicode="7" horiz-adv-x="843" d="M31 1325v166h823l-553 -1491h-182l493 1325h-581z" />
<glyph unicode="8" horiz-adv-x="1042" d="M59 424q0 116 56.5 214.5t152.5 158.5q-74 57 -116.5 139.5t-42.5 177.5q0 169 120.5 287.5t290.5 118.5t291 -118.5t121 -287.5q0 -95 -42 -177.5t-116 -139.5q95 -60 151 -158t56 -215q0 -123 -61.5 -227t-167.5 -164t-232 -60q-191 0 -326 132t-135 319zM229 430 q0 -117 85.5 -200t205.5 -83q121 0 207 83t86 200q0 114 -81.5 196.5t-199.5 86.5h-12h-10q-117 -5 -199 -87t-82 -196zM270 1114q0 -100 73.5 -171t176.5 -71q104 0 177 71t73 171q0 101 -73 172.5t-177 71.5q-103 0 -176.5 -71.5t-73.5 -172.5z" />
<glyph unicode="9" horiz-adv-x="1003" d="M47 1055q0 127 60 234t164.5 169t228.5 62q189 0 320.5 -134.5t131.5 -328.5q0 -34 -3 -64.5t-15 -71t-22 -70t-38.5 -87.5t-48.5 -97.5t-67.5 -125t-81.5 -145t-104 -182.5t-121 -214h-193q58 102 179 314.5t165 291.5q-58 -14 -106 -14q-128 0 -232 65t-160.5 170.5 t-56.5 227.5zM217 1055q0 -118 79.5 -208.5t203.5 -90.5q91 0 162 54.5t104 137.5h2q14 52 14 103q0 123 -82 210t-200 87q-116 0 -199.5 -86t-83.5 -207z" />
<glyph unicode=":" horiz-adv-x="571" d="M164 518q0 51 36 87t87 36q50 0 85.5 -36t35.5 -87t-35.5 -86t-85.5 -35q-51 0 -87 35t-36 86zM164 1016q0 51 36 87t87 36q50 0 85.5 -36t35.5 -87t-35.5 -86t-85.5 -35q-51 0 -87 35t-36 86z" />
<glyph unicode=";" horiz-adv-x="571" d="M164 1016q0 51 36 87t87 36q50 0 85.5 -36t35.5 -87t-35.5 -86t-85.5 -35q-51 0 -87 35t-36 86zM166 524q0 46 33 81.5t88 35.5q51 0 85 -34.5t34 -88.5q0 -62 -45.5 -122.5t-145.5 -108.5l-31 67q55 32 76 62q-42 7 -68 37.5t-26 70.5z" />
<glyph unicode="&#x3c;" horiz-adv-x="790" d="M41 735l651 355v-158l-383 -197l383 -194v-160z" />
<glyph unicode="=" horiz-adv-x="876" d="M102 551v154h672v-154h-672zM102 864v154h672v-154h-672z" />
<glyph unicode="&#x3e;" horiz-adv-x="847" d="M156 381v160l383 194l-383 197v158l651 -355z" />
<glyph unicode="?" horiz-adv-x="1077" d="M133 1176q29 156 147 250t271 94q169 0 281 -113t112 -274q0 -79 -27.5 -150.5t-68.5 -121t-89.5 -99t-89.5 -87t-68.5 -83t-27.5 -88.5v-123h-165v129q0 58 20 110t52.5 92t71.5 78.5t78 76t71.5 76t52.5 87.5t20 103q0 94 -62.5 158.5t-164.5 64.5q-93 0 -167 -58.5 t-95 -164.5zM377 94q0 47 34 81t81 34q46 0 79 -34t33 -81q0 -46 -33 -79t-79 -33q-47 0 -81 33t-34 79z" />
<glyph unicode="@" horiz-adv-x="1714" d="M102 748q0 157 61 300t164 246.5t246 164.5t301 61q138 0 258.5 -37.5t207 -101.5t149 -149t93 -181.5t30.5 -196.5q0 -192 -111 -318t-295 -126h-139v65q-96 -86 -223 -86q-145 0 -246.5 105t-101.5 254q0 148 101.5 251t246.5 103q127 0 223 -86v63h137v-530 q128 3 197 88.5t69 216.5q0 100 -40 193t-113 167t-188 118t-255 44q-171 0 -315.5 -84t-228.5 -228.5t-84 -315.5t84 -316t228.5 -229t315.5 -84q126 0 238 45.5t197 130.5l96 -109q-107 -101 -243.5 -157t-287.5 -56q-158 0 -301 61.5t-246 165.5t-164 247.5t-61 300.5z M637 748q0 -89 62.5 -153.5t150.5 -64.5q89 0 152 64t63 154q0 87 -63 150t-152 63q-88 0 -150.5 -62.5t-62.5 -150.5z" />
<glyph unicode="A" horiz-adv-x="1257" d="M0 0l633 1522l624 -1522h-192l-137 354h-598l-137 -354h-193zM389 504h481l-237 618z" />
<glyph unicode="B" horiz-adv-x="1247" d="M203 0v1491h178h287q161 0 271 -105t110 -260q0 -88 -39.5 -164t-108.5 -128q114 -53 182 -157t68 -231q0 -187 -133.5 -316.5t-327.5 -129.5h-360h-127zM381 162h299q123 0 208 84t85 207q0 121 -85 203.5t-208 82.5h-299v-577zM381 895h274q92 0 154.5 62.5t62.5 154.5 q0 93 -62 155t-155 62h-274v-434z" />
<glyph unicode="C" horiz-adv-x="1460" d="M102 745q0 159 60 302.5t162 247t244 164.5t300 61q287 0 541 -201l-111 -133q-205 162 -426 162q-161 0 -295 -79.5t-211 -218t-77 -305.5q0 -166 77 -303.5t211 -217t295 -79.5q227 0 426 160l109 -133q-247 -199 -539 -199q-158 0 -300 60.5t-244 163.5t-162 246 t-60 302z" />
<glyph unicode="D" horiz-adv-x="1490" d="M203 0v1491h182h301q201 0 363 -99.5t252 -270t90 -376.5q0 -204 -90 -374.5t-252 -270.5t-363 -100h-422h-61zM385 166h270q119 0 222 46.5t173.5 125t111 184.5t40.5 223q0 86 -22 169t-68 157.5t-109.5 131t-153.5 89.5t-194 33h-270v-1159z" />
<glyph unicode="E" horiz-adv-x="1189" d="M203 0v1491h182h682v-164h-682v-477h598v-164h-598v-520h682v-166h-793h-71z" />
<glyph unicode="F" horiz-adv-x="1153" d="M203 0v1491h182h647v-164h-647v-477h541v-166h-541v-684h-182z" />
<glyph unicode="G" horiz-adv-x="1652" d="M111 748q0 158 60 300.5t163 246t249 164.5t310 61q162 0 309.5 -59t257.5 -161l-104 -135q-88 81 -208 132t-251 51q-169 0 -306.5 -79.5t-214.5 -217t-77 -303.5q0 -162 79.5 -301t216 -220.5t294.5 -81.5q126 0 248.5 50.5t205.5 136.5v354h-409v160h577v-594 q-115 -133 -280.5 -206t-345.5 -73q-211 0 -389.5 104t-281.5 282t-103 389z" />
<glyph unicode="H" horiz-adv-x="1437" d="M203 0v1491h182v-639h668v639h182v-1491h-182v686h-668v-686h-182z" />
<glyph unicode="I" horiz-adv-x="505" d="M162 0v1491h182v-1491h-182z" />
<glyph unicode="J" horiz-adv-x="638" d="M29 -195q132 115 178.5 205t46.5 230v1251h182v-1237q0 -202 -60.5 -325.5t-232.5 -264.5z" />
<glyph unicode="K" horiz-adv-x="1296" d="M203 0v1491h184v-1491h-184zM391 743l637 748h219l-626 -723q56 -32 134 -128.5t150.5 -202t180 -231.5t210.5 -206h-237q-68 45 -142.5 129.5t-138 175t-126.5 179t-131 159.5t-130 100z" />
<glyph unicode="L" horiz-adv-x="1155" d="M203 0v1491h182v-1325h709v-166h-891z" />
<glyph unicode="M" horiz-adv-x="1794" d="M203 0v1522l694 -785l694 785v-1522h-180v1075l-514 -586l-514 586v-1075h-180z" />
<glyph unicode="N" horiz-adv-x="1515" d="M203 0v1522l930 -1080v1049h180v-1522l-930 1084v-1053h-180z" />
<glyph unicode="O" d="M102 748q0 210 103.5 387.5t282 281t389.5 103.5q158 0 301 -61t247 -164.5t165 -246.5t61 -300q0 -158 -61 -301.5t-165 -247t-247 -165t-301 -61.5q-211 0 -389.5 104t-282 282t-103.5 389zM289 748q0 -163 77 -301.5t212.5 -220t298.5 -81.5q121 0 229.5 48t186.5 129 t123.5 192t45.5 234q0 122 -45.5 232.5t-123 191.5t-186.5 128.5t-230 47.5t-230.5 -47.5t-187.5 -128.5t-124 -191.5t-46 -232.5z" />
<glyph unicode="P" horiz-adv-x="1230" d="M203 0v1491h182h309q194 0 324.5 -130t130.5 -319q0 -190 -130.5 -321t-324.5 -131h-309v-590h-182zM385 756h299q128 0 206.5 82.5t78.5 203.5q0 123 -79.5 204t-205.5 81h-299v-571z" />
<glyph unicode="Q" d="M102 748q0 210 103.5 387.5t282 281t389.5 103.5q158 0 301 -61t247 -164.5t165 -246.5t61 -300q0 -244 -138.5 -441.5t-359.5 -281.5q15 -9 61 -37.5t65 -39.5t60.5 -31.5t70 -29.5t69 -16.5t80.5 -7.5q128 0 202 74l84 -125q-111 -111 -286 -111h-7q-85 0 -162 23 q-80 24 -143.5 60t-122.5 73.5t-131 70.5t-145 45q-205 7 -376.5 112t-270.5 280.5t-99 382.5zM289 748q0 -163 77 -301.5t212.5 -220t298.5 -81.5q121 0 229.5 48t186.5 129t123.5 192t45.5 234q0 122 -45.5 232.5t-123 191.5t-186.5 128.5t-230 47.5t-230.5 -47.5 t-187.5 -128.5t-124 -191.5t-46 -232.5z" />
<glyph unicode="R" horiz-adv-x="1263" d="M203 0v1491h178h350q180 0 303 -122.5t123 -301.5q0 -156 -98 -272t-250 -142q38 -23 74.5 -75t71 -121t70 -143t85.5 -160.5t104 -153.5h-217q-42 56 -84 133.5t-72 143t-66.5 133.5t-70 115.5t-79 77.5t-97.5 30h-147v-633h-178zM381 793h321q121 0 200 76t79 192 t-80.5 191t-198.5 75h-321v-534z" />
<glyph unicode="S" horiz-adv-x="1062" d="M57 150l95 133q175 -142 356 -142q126 0 211.5 75t85.5 185q0 68 -37.5 121t-97 88.5t-131.5 68t-144 70t-131.5 84t-97 120.5t-37.5 169q0 174 126 286t323 112q95 0 193 -31t177 -86l-84 -133q-141 88 -278 88q-119 0 -197 -66t-78 -162q0 -54 23.5 -98t63 -75.5 t91 -59.5t108 -54t113 -53.5t108 -63.5t91 -79.5t63 -106t23.5 -137.5q0 -187 -133 -308.5t-350 -121.5q-249 0 -455 177z" />
<glyph unicode="T" horiz-adv-x="1116" d="M31 1325v166h1054v-166h-434v-1325h-184v1325h-436z" />
<glyph unicode="U" horiz-adv-x="1347" d="M182 432v1059h183v-1036q0 -128 88.5 -214.5t220.5 -86.5t220.5 86.5t88.5 214.5v1036h182v-1059q0 -198 -140 -328.5t-351 -130.5t-351.5 130.5t-140.5 328.5z" />
<glyph unicode="V" horiz-adv-x="1280" d="M0 1491h193l446 -1096l455 1096h186l-643 -1522z" />
<glyph unicode="W" horiz-adv-x="1849" d="M0 1491h188l377 -1079l361 776l358 -776l379 1079h186l-534 -1522l-389 865l-389 -865z" />
<glyph unicode="X" horiz-adv-x="1116" d="M18 0l426 801l-391 690h207l297 -539l299 539h205l-391 -688l424 -803h-203l-336 657l-336 -657h-201z" />
<glyph unicode="Y" horiz-adv-x="1054" d="M0 1491h203l334 -713l319 713h199l-697 -1491h-198l280 582z" />
<glyph unicode="Z" horiz-adv-x="1124" d="M59 0l707 1325h-619v166h897l-704 -1325h721v-166h-1002z" />
<glyph unicode="[" horiz-adv-x="831" d="M266 -231v1925h391v-162h-215v-1602h215v-161h-391z" />
<glyph unicode="\" horiz-adv-x="1001" d="M20 1511h181l778 -1529h-180z" />
<glyph unicode="]" horiz-adv-x="831" d="M176 -70h215v1602h-215v162h389v-1925h-389v161z" />
<glyph unicode="^" horiz-adv-x="935" d="M78 852l391 655l389 -655h-156l-233 401l-236 -401h-155z" />
<glyph unicode="_" horiz-adv-x="1003" d="M43 -43h918v-162h-918v162z" />
<glyph unicode="`" horiz-adv-x="505" d="M88 1810l100 101l230 -234l-101 -98z" />
<glyph unicode="a" horiz-adv-x="1257" d="M0 0l633 1522l624 -1522h-192l-137 354h-598l-137 -354h-193zM389 504h481l-237 618z" />
<glyph unicode="b" horiz-adv-x="1247" d="M203 0v1491h178h287q161 0 271 -105t110 -260q0 -88 -39.5 -164t-108.5 -128q114 -53 182 -157t68 -231q0 -187 -133.5 -316.5t-327.5 -129.5h-360h-127zM381 162h299q123 0 208 84t85 207q0 121 -85 203.5t-208 82.5h-299v-577zM381 895h274q92 0 154.5 62.5t62.5 154.5 q0 93 -62 155t-155 62h-274v-434z" />
<glyph unicode="c" horiz-adv-x="1460" d="M102 745q0 159 60 302.5t162 247t244 164.5t300 61q287 0 541 -201l-111 -133q-205 162 -426 162q-161 0 -295 -79.5t-211 -218t-77 -305.5q0 -166 77 -303.5t211 -217t295 -79.5q227 0 426 160l109 -133q-247 -199 -539 -199q-158 0 -300 60.5t-244 163.5t-162 246 t-60 302z" />
<glyph unicode="d" horiz-adv-x="1490" d="M203 0v1491h182h301q201 0 363 -99.5t252 -270t90 -376.5q0 -204 -90 -374.5t-252 -270.5t-363 -100h-422h-61zM385 166h270q119 0 222 46.5t173.5 125t111 184.5t40.5 223q0 86 -22 169t-68 157.5t-109.5 131t-153.5 89.5t-194 33h-270v-1159z" />
<glyph unicode="e" horiz-adv-x="1189" d="M203 0v1491h182h682v-164h-682v-477h598v-164h-598v-520h682v-166h-793h-71z" />
<glyph unicode="f" horiz-adv-x="1153" d="M203 0v1491h182h647v-164h-647v-477h541v-166h-541v-684h-182z" />
<glyph unicode="g" horiz-adv-x="1652" d="M111 748q0 158 60 300.5t163 246t249 164.5t310 61q162 0 309.5 -59t257.5 -161l-104 -135q-88 81 -208 132t-251 51q-169 0 -306.5 -79.5t-214.5 -217t-77 -303.5q0 -162 79.5 -301t216 -220.5t294.5 -81.5q126 0 248.5 50.5t205.5 136.5v354h-409v160h577v-594 q-115 -133 -280.5 -206t-345.5 -73q-211 0 -389.5 104t-281.5 282t-103 389z" />
<glyph unicode="h" horiz-adv-x="1437" d="M203 0v1491h182v-639h668v639h182v-1491h-182v686h-668v-686h-182z" />
<glyph unicode="i" horiz-adv-x="505" d="M162 0v1491h182v-1491h-182z" />
<glyph unicode="j" horiz-adv-x="638" d="M29 -195q132 115 178.5 205t46.5 230v1251h182v-1237q0 -202 -60.5 -325.5t-232.5 -264.5z" />
<glyph unicode="k" horiz-adv-x="1296" d="M203 0v1491h184v-1491h-184zM391 727l637 764h219l-626 -741q81 -46 190 -209q13 -18 40.5 -59t42 -61.5t40.5 -56.5t42.5 -55.5t40.5 -47.5t43 -42.5t41.5 -30t44 -22t42.5 -6.5q45 0 72 8v-166q-46 -12 -91 -12q-36 0 -70.5 8.5t-63.5 21t-60 35t-55 43t-52.5 54 t-48 58.5t-47 64.5t-44 65t-43.5 68t-42 65.5q-74 116 -133.5 173t-118.5 81z" />
<glyph unicode="l" horiz-adv-x="1155" d="M203 0v1491h182v-1325h709v-166h-891z" />
<glyph unicode="m" horiz-adv-x="1794" d="M203 0v1522l694 -785l694 785v-1522h-180v1075l-514 -586l-514 586v-1075h-180z" />
<glyph unicode="n" horiz-adv-x="1515" d="M203 0v1522l930 -1080v1049h180v-1522l-930 1084v-1053h-180z" />
<glyph unicode="o" d="M102 748q0 210 103.5 387.5t282 281t389.5 103.5q158 0 301 -61t247 -164.5t165 -246.5t61 -300q0 -158 -61 -301.5t-165 -247t-247 -165t-301 -61.5q-211 0 -389.5 104t-282 282t-103.5 389zM289 748q0 -163 77 -301.5t212.5 -220t298.5 -81.5q121 0 229.5 48t186.5 129 t123.5 192t45.5 234q0 122 -45.5 232.5t-123 191.5t-186.5 128.5t-230 47.5t-230.5 -47.5t-187.5 -128.5t-124 -191.5t-46 -232.5z" />
<glyph unicode="p" horiz-adv-x="1230" d="M203 0v1491h182h309q194 0 324.5 -130t130.5 -319q0 -190 -130.5 -321t-324.5 -131h-309v-590h-182zM385 756h299q128 0 206.5 82.5t78.5 203.5q0 123 -79.5 204t-205.5 81h-299v-571z" />
<glyph unicode="q" d="M102 748q0 210 103.5 387.5t282 281t389.5 103.5q158 0 301 -61t247 -164.5t165 -246.5t61 -300q0 -244 -138.5 -441.5t-359.5 -281.5q15 -9 61 -37.5t65 -39.5t60.5 -31.5t70 -29.5t69 -16.5t80.5 -7.5q128 0 202 74l84 -125q-111 -111 -286 -111h-7q-85 0 -162 23 q-80 24 -143.5 60t-122.5 73.5t-131 70.5t-145 45q-205 7 -376.5 112t-270.5 280.5t-99 382.5zM289 748q0 -163 77 -301.5t212.5 -220t298.5 -81.5q121 0 229.5 48t186.5 129t123.5 192t45.5 234q0 122 -45.5 232.5t-123 191.5t-186.5 128.5t-230 47.5t-230.5 -47.5 t-187.5 -128.5t-124 -191.5t-46 -232.5z" />
<glyph unicode="r" horiz-adv-x="1263" d="M203 0v1491h178h309q228 0 347.5 -118t119.5 -300q0 -188 -120.5 -299t-315.5 -117q45 -26 87 -88t74.5 -129t67 -131t80 -105.5t98.5 -41.5q45 0 70 8v-168q-44 -12 -90 -12q-74 0 -135.5 35.5t-104 92t-79.5 125t-70.5 137.5t-69.5 125.5t-85 92t-107 35.5h-76v-633 h-178zM381 793h225q84 0 149 13.5t118 43.5t81.5 85.5t28.5 133.5q0 119 -75.5 188.5t-225.5 69.5h-301v-534z" />
<glyph unicode="s" horiz-adv-x="1062" d="M57 150l95 133q175 -142 356 -142q126 0 211.5 75t85.5 185q0 68 -37.5 121t-97 88.5t-131.5 68t-144 70t-131.5 84t-97 120.5t-37.5 169q0 174 126 286t323 112q95 0 193 -31t177 -86l-84 -133q-141 88 -278 88q-119 0 -197 -66t-78 -162q0 -54 23.5 -98t63 -75.5 t91 -59.5t108 -54t113 -53.5t108 -63.5t91 -79.5t63 -106t23.5 -137.5q0 -187 -133 -308.5t-350 -121.5q-249 0 -455 177z" />
<glyph unicode="t" horiz-adv-x="1116" d="M31 1325v166h1054v-166h-434v-1325h-184v1325h-436z" />
<glyph unicode="u" horiz-adv-x="1347" d="M182 432v1059h183v-1036q0 -128 88.5 -214.5t220.5 -86.5t220.5 86.5t88.5 214.5v1036h182v-1059q0 -198 -140 -328.5t-351 -130.5t-351.5 130.5t-140.5 328.5z" />
<glyph unicode="v" horiz-adv-x="1280" d="M0 1491h193l446 -1096l455 1096h186l-643 -1522z" />
<glyph unicode="w" horiz-adv-x="1849" d="M0 1491h188l377 -1079l361 776l358 -776l379 1079h186l-534 -1522l-389 865l-389 -865z" />
<glyph unicode="x" horiz-adv-x="1116" d="M18 0l426 801l-391 690h207l297 -539l299 539h205l-391 -688l424 -803h-203l-336 657l-336 -657h-201z" />
<glyph unicode="y" horiz-adv-x="1083" d="M0 1491h205l334 -709l340 709h204l-452 -909v-582h-182v588z" />
<glyph unicode="z" horiz-adv-x="1124" d="M59 0l707 1325h-619v166h897l-704 -1325h721v-166h-1002z" />
<glyph unicode="{" horiz-adv-x="831" d="M82 662v139q96 0 142 51t46 156v376q0 159 87.5 235t299.5 75v-162q-125 -3 -168 -38t-43 -120v-370q0 -182 -120 -271q123 -84 123 -274v-369q0 -87 42 -122t166 -38v-161q-109 -1 -183.5 18.5t-118 60t-62.5 96t-19 134.5v377q0 207 -192 207z" />
<glyph unicode="|" horiz-adv-x="493" d="M158 -246v1979h178v-1979h-178z" />
<glyph unicode="}" horiz-adv-x="831" d="M176 -70q124 3 166.5 38.5t42.5 121.5v369q0 189 121 274q-119 91 -119 271v370q0 85 -43.5 120t-167.5 38v162q211 1 298 -75t87 -235v-376q0 -105 46.5 -156t142.5 -51v-139q-191 0 -191 -207v-377q0 -159 -86 -234.5t-297 -74.5v161z" />
<glyph unicode="~" horiz-adv-x="1214" d="M152 637q-8 107 62.5 182.5t186.5 75.5q65 0 123.5 -22t95 -48.5t85 -48.5t94.5 -22q64 0 99 35.5t32 89.5h133q6 -105 -66 -181.5t-188 -76.5q-65 0 -123.5 22.5t-94.5 49t-84.5 49t-94.5 22.5q-60 0 -98 -35t-35 -92h-127z" />
<glyph unicode="&#xa1;" horiz-adv-x="673" d="M231 1374q0 51 33.5 86t81.5 35t82.5 -35t34.5 -86t-34.5 -87t-82.5 -36q-47 0 -81 36t-34 87zM252 -29l16 1143h158l16 -1143h-190z" />
<glyph unicode="&#xa2;" horiz-adv-x="1079" d="M53 545q0 212 137.5 373.5t341.5 195.5v184h162v-180q192 -22 330 -157l-106 -115q-58 55 -133 85t-156 30q-169 0 -290.5 -122.5t-121.5 -293.5q0 -170 121.5 -292t290.5 -122q165 0 286 115l109 -117q-141 -134 -330 -156v-161h-162v165q-204 34 -341.5 195t-137.5 373 z" />
<glyph unicode="&#xa3;" horiz-adv-x="1165" d="M100 702v115h154q-27 143 -27 225q0 216 134 345t341 129q109 0 208.5 -44t172.5 -126l-104 -115q-108 123 -266 123q-137 0 -225.5 -87t-88.5 -239q0 -64 27 -211h360v-115h-340q25 -158 25 -233q0 -152 -55 -256q58 10 102 10q79 0 212 -33.5t192 -33.5q88 0 145 28 l74 -157q-85 -39 -207 -39q-74 0 -223 34.5t-230 34.5q-80 0 -153.5 -22.5t-122.5 -57.5l-92 132q94 67 141 150.5t47 213.5q0 97 -25 229h-176z" />
<glyph unicode="&#xa4;" horiz-adv-x="1083" d="M168 485l100 103q-55 83 -55 184q0 103 55 186l-100 103l86 88l102 -102q83 57 185 57q105 0 188 -57l98 102l88 -88l-100 -103q55 -86 55 -186q0 -101 -55 -184l100 -103l-88 -86l-100 101q-88 -58 -186 -58q-99 0 -187 58l-100 -101zM336 772q0 -85 60 -145t145 -60 q86 0 146.5 60t60.5 145q0 87 -60 147t-147 60q-85 0 -145 -60.5t-60 -146.5z" />
<glyph unicode="&#xa5;" horiz-adv-x="1052" d="M14 1495h205l305 -637l314 637h200l-362 -698h211v-117h-271v-102h271v-117h-271v-461h-182v461h-270v117h270v100l-2 2h-268v117h209z" />
<glyph unicode="&#xa6;" horiz-adv-x="493" d="M158 -246v772h178v-772h-178zM158 961v772h178v-772h-178z" />
<glyph unicode="&#xa7;" horiz-adv-x="1132" d="M74 137l114 92q128 -161 287 -161q117 0 191.5 71.5t74.5 165.5q0 60 -34 106.5t-87.5 77t-119 59t-131 62.5t-119 76.5t-87.5 111.5t-34 158t44 167.5t128 129.5q12 132 113.5 225t251.5 93q186 0 346 -170l-103 -101q-62 62 -118 93.5t-123 31.5q-99 0 -160.5 -60.5 t-61.5 -143.5q0 -51 18.5 -90.5t62 -71.5t70.5 -46t88 -42q11 -5 17 -8q46 -21 72 -33.5t69.5 -36.5t69 -44t57 -51.5t48.5 -63.5t29 -75.5t12 -91.5q0 -192 -172 -309q-20 -140 -133.5 -239t-280.5 -99q-107 0 -209.5 54t-189.5 163zM276 958q0 -56 26.5 -100t71.5 -75 t100 -57.5t114.5 -54t113 -57.5t99 -76t67.5 -102q43 55 43 131q0 30 -8 56t-18 45t-32.5 39.5t-39 32.5t-50.5 29.5t-52.5 26.5t-59.5 27q-128 58 -185 97q-101 71 -140 165q-50 -56 -50 -127z" />
<glyph unicode="&#xa8;" horiz-adv-x="710" d="M86 1716q0 51 36 87t87 36q50 0 85.5 -36t35.5 -87t-35.5 -86t-85.5 -35q-51 0 -87 35t-36 86zM426 1716q0 51 36 87t87 36t86 -36t35 -87t-35 -86t-86 -35t-87 35t-36 86z" />
<glyph unicode="&#xa9;" horiz-adv-x="1732" d="M94 748q0 209 104 387t282 281.5t388 103.5q209 0 386.5 -103.5t280.5 -281t103 -387.5q0 -157 -61 -300.5t-164 -247.5t-245.5 -165.5t-299.5 -61.5t-300 61.5t-247 165.5t-165.5 247.5t-61.5 300.5zM190 748q0 -138 53.5 -263.5t144.5 -216.5t216.5 -144.5t263.5 -53.5 q137 0 261.5 53.5t215 144.5t144 216.5t53.5 263.5q0 137 -53.5 261.5t-143.5 215.5t-215 144.5t-262 53.5q-184 0 -340.5 -90.5t-247 -246t-90.5 -338.5zM434 748q0 182 129.5 311t313.5 129q102 0 193 -46.5t153 -125.5l-115 -88q-40 53 -101 83.5t-128 30.5 q-121 0 -208 -87t-87 -207q0 -122 87 -209.5t208 -87.5q67 0 128 30t101 82l113 -90q-62 -77 -152 -122.5t-192 -45.5q-185 0 -314 129.5t-129 313.5z" />
<glyph unicode="&#xaa;" horiz-adv-x="641" d="M74 1270q0 102 69.5 172.5t169.5 70.5q93 0 160 -67v61h92v-475h-92v62q-65 -68 -160 -68q-100 0 -169.5 71.5t-69.5 172.5zM170 1270q0 -62 45 -107t107 -45q61 0 106 45t45 107t-44.5 106.5t-106.5 44.5t-107 -45t-45 -106z" />
<glyph unicode="&#xab;" horiz-adv-x="960" d="M90 772l268 318h160l-268 -318l268 -315h-160zM418 772l268 318h160l-268 -318l268 -315h-160z" />
<glyph unicode="&#xac;" horiz-adv-x="950" d="M109 702v164h733v-401l-164 2v235h-569z" />
<glyph unicode="&#xad;" horiz-adv-x="841" d="M119 688v164h604v-164h-604z" />
<glyph unicode="&#xae;" horiz-adv-x="739" d="M100 1235q0 112 81 192t192 80q115 0 194.5 -79.5t79.5 -192.5q0 -114 -79.5 -194t-194.5 -80q-111 0 -192 80.5t-81 193.5zM143 1235q0 -95 67.5 -163t162.5 -68q96 0 163.5 67.5t67.5 163.5q0 97 -67 163t-164 66q-96 0 -163 -66.5t-67 -162.5zM264 1092v301h64h78 q40 0 67 -27.5t27 -67.5q0 -30 -16.5 -53.5t-43.5 -32.5l60 -120h-70l-55 114h-47v-114h-64zM328 1262h73q21 0 31 11.5t10 24.5q0 18 -12.5 27.5t-28.5 9.5h-73v-73z" />
<glyph unicode="&#xaf;" horiz-adv-x="772" d="M94 1667v137h584v-137h-584z" />
<glyph unicode="&#xb0;" horiz-adv-x="643" d="M78 1270q0 102 71 172.5t173 70.5t172.5 -70.5t70.5 -172.5q0 -101 -71 -172.5t-172 -71.5q-102 0 -173 71t-71 173zM170 1270q0 -62 45 -107t107 -45q61 0 106 45t45 107t-44.5 106.5t-106.5 44.5t-107 -45t-45 -106z" />
<glyph unicode="&#xb1;" horiz-adv-x="886" d="M111 702v154h262v262h153v-262h262v-154h-262v-215h258v-133h-671v133h260v215h-262z" />
<glyph unicode="&#xb4;" horiz-adv-x="505" d="M92 1669l230 236l100 -103l-229 -231z" />
<glyph unicode="&#xb6;" horiz-adv-x="1118" d="M61 1176q0 130 86 222.5t230 92.5h676v-164h-95v-1327h-176v1327h-143v-1327h-178v858h-84q-143 0 -229.5 92.5t-86.5 225.5z" />
<glyph unicode="&#xb7;" horiz-adv-x="434" d="M98 721q0 47 35 81t84 34q47 0 82 -34t35 -81q0 -49 -34.5 -84t-82.5 -35q-49 0 -84 35t-35 84z" />
<glyph unicode="&#xb8;" horiz-adv-x="569" d="M94 -393q52 -17 103 -17q64 0 104.5 31.5t40.5 81.5q0 88 -123 88h-65l16 113h72q107 0 170 -53.5t63 -145.5q0 -100 -74.5 -166.5t-189.5 -66.5q-58 0 -117 20v115z" />
<glyph unicode="&#xba;" horiz-adv-x="643" d="M78 1270q0 102 71 172.5t173 70.5t172.5 -70.5t70.5 -172.5q0 -101 -71 -172.5t-172 -71.5q-102 0 -173 71t-71 173zM170 1270q0 -62 45 -107t107 -45q61 0 106 45t45 107t-44.5 106.5t-106.5 44.5t-107 -45t-45 -106z" />
<glyph unicode="&#xbb;" horiz-adv-x="960" d="M98 457l269 315l-269 318h160l268 -318l-268 -315h-160zM424 457l268 315l-268 318h162l268 -318l-268 -315h-162z" />
<glyph unicode="&#xbf;" horiz-adv-x="1077" d="M133 360q0 79 25 150.5t63 121t82 99t82 87t63 83t25 88.5v123h164v-129q0 -58 -18.5 -110t-48 -92t-65 -78.5t-71 -76t-65 -76t-48 -87.5t-18.5 -103q0 -94 62.5 -158.5t164.5 -64.5q93 0 166.5 58.5t94.5 164.5l153 -43q-29 -156 -147.5 -250t-270.5 -94 q-169 0 -281 113t-112 274zM442 1399q0 46 33.5 79t79.5 33t79.5 -33t33.5 -79q0 -47 -33.5 -81t-79.5 -34t-79.5 34t-33.5 81z" />
<glyph unicode="&#xc0;" horiz-adv-x="1257" d="M0 0l633 1522l624 -1522h-192l-137 354h-598l-137 -354h-193zM389 504h481l-237 618zM467 1851l100 101l230 -234l-101 -98z" />
<glyph unicode="&#xc1;" horiz-adv-x="1257" d="M0 0l633 1522l624 -1522h-192l-137 354h-598l-137 -354h-193zM389 504h481l-237 618zM471 1710l229 236l101 -103l-230 -231z" />
<glyph unicode="&#xc2;" horiz-adv-x="1257" d="M0 0l633 1522l624 -1522h-192l-137 354h-598l-137 -354h-193zM373 1706l260 238l258 -238l-86 -92l-172 158l-174 -158zM389 504h481l-237 618z" />
<glyph unicode="&#xc3;" horiz-adv-x="1257" d="M0 0l633 1522l624 -1522h-192l-137 354h-598l-137 -354h-193zM289 1657q-2 99 53 166t145 67q41 0 77 -14t62.5 -33.5t50 -39.5t49.5 -33.5t52 -12.5q39 0 58.5 32t21.5 79h119q2 -98 -53.5 -166.5t-145.5 -69.5q-50 0 -94.5 21t-71.5 45.5t-61 45.5t-64 21 q-35 1 -56 -29.5t-23 -78.5h-119zM389 504h481l-237 618z" />
<glyph unicode="&#xc4;" horiz-adv-x="1257" d="M0 0l633 1522l624 -1522h-192l-137 354h-598l-137 -354h-193zM340 1757q0 51 36 87t87 36q50 0 85.5 -36t35.5 -87t-35.5 -86t-85.5 -35q-51 0 -87 35t-36 86zM389 504h481l-237 618zM680 1757q0 51 36 87t87 36q50 0 85.5 -36t35.5 -87t-35.5 -86t-85.5 -35 q-51 0 -87 35t-36 86z" />
<glyph unicode="&#xc5;" horiz-adv-x="1257" d="M0 0l633 1522l624 -1522h-192l-137 354h-598l-137 -354h-193zM389 504h481l-237 618zM453 1765q0 75 53 127t127 52q75 0 127.5 -52t52.5 -127q0 -74 -52.5 -127t-127.5 -53q-73 0 -126.5 53.5t-53.5 126.5zM547 1765q0 -35 25.5 -61.5t60.5 -26.5q36 0 61 26t25 62 t-25 62t-61 26q-35 0 -60.5 -25.5t-25.5 -62.5z" />
<glyph unicode="&#xc6;" horiz-adv-x="1843" d="M-16 0l958 1491h813v-166h-651v-475h582v-164h-582v-520h651v-166h-833v391h-476l-251 -391h-211zM524 543h398v624z" />
<glyph unicode="&#xc7;" horiz-adv-x="1460" d="M102 745q0 159 60 302.5t162 247t244 164.5t300 61q287 0 541 -201l-111 -133q-205 162 -426 162q-161 0 -295 -79.5t-211 -218t-77 -305.5q0 -166 77 -303.5t211 -217t295 -79.5q227 0 426 160l109 -133q-247 -199 -539 -199q-158 0 -300 60.5t-244 163.5t-162 246 t-60 302zM682 -401q52 -17 102 -17q64 0 105 31.5t41 81.5q0 88 -123 88h-66l17 113h71q108 0 171 -53.5t63 -145.5q0 -100 -74.5 -167t-189.5 -67q-55 0 -117 21v115z" />
<glyph unicode="&#xc8;" horiz-adv-x="1189" d="M203 0v1491h182h682v-164h-682v-477h598v-164h-598v-520h682v-166h-793h-71zM492 1855l100 101l229 -234l-100 -98z" />
<glyph unicode="&#xc9;" horiz-adv-x="1189" d="M203 0v1491h182h682v-164h-682v-477h598v-164h-598v-520h682v-166h-793h-71zM496 1714l229 236l100 -103l-229 -231z" />
<glyph unicode="&#xca;" horiz-adv-x="1189" d="M203 0v1491h182h682v-164h-682v-477h598v-164h-598v-520h682v-166h-793h-71zM397 1710l260 238l258 -238l-86 -92l-172 158l-174 -158z" />
<glyph unicode="&#xcb;" horiz-adv-x="1189" d="M203 0v1491h182h682v-164h-682v-477h598v-164h-598v-520h682v-166h-793h-71zM365 1761q0 51 35.5 87t86.5 36q50 0 85.5 -36t35.5 -87t-35.5 -86t-85.5 -35q-51 0 -86.5 35t-35.5 86zM705 1761q0 51 35.5 87t86.5 36q50 0 85.5 -36t35.5 -87t-35.5 -86t-85.5 -35 q-51 0 -86.5 35t-35.5 86z" />
<glyph unicode="&#xcc;" horiz-adv-x="505" d="M88 1851l100 101l230 -234l-101 -98zM162 0v1491h182v-1491h-182z" />
<glyph unicode="&#xcd;" horiz-adv-x="505" d="M92 1710l230 236l100 -103l-229 -231zM162 0v1491h182v-1491h-182z" />
<glyph unicode="&#xce;" horiz-adv-x="505" d="M-6 1706l260 238l258 -238l-86 -92l-172 158l-174 -158zM162 0v1491h182v-1491h-182z" />
<glyph unicode="&#xcf;" horiz-adv-x="505" d="M-39 1757q0 51 36 87t87 36q50 0 85.5 -36t35.5 -87t-35.5 -86t-85.5 -35q-51 0 -87 35t-36 86zM162 0v1491h182v-1491h-182zM301 1757q0 51 36 87t87 36q50 0 85.5 -36t35.5 -87t-35.5 -86t-85.5 -35q-51 0 -87 35t-36 86z" />
<glyph unicode="&#xd0;" horiz-adv-x="1581" d="M90 694v160h203v637h182h301q201 0 363 -99.5t252 -270t90 -376.5q0 -204 -90 -374.5t-252 -270.5t-363 -100h-422h-61v694h-203zM475 166h270q119 0 222 46.5t173.5 125t111 184.5t40.5 223q0 86 -22 169t-68 157.5t-109.5 131t-153.5 89.5t-194 33h-270v-471h361v-160 h-361v-528z" />
<glyph unicode="&#xd1;" horiz-adv-x="1515" d="M203 0v1522l930 -1080v1049h180v-1522l-930 1084v-1053h-180zM420 1657q-2 99 53 166t145 67q41 0 77 -14t62.5 -33.5t50 -39.5t49.5 -33.5t52 -12.5q39 0 58.5 32t21.5 79h119q2 -98 -53.5 -166.5t-145.5 -69.5q-50 0 -94.5 21t-71.5 45.5t-61 45.5t-64 21 q-35 1 -56 -29.5t-23 -78.5h-119z" />
<glyph unicode="&#xd2;" d="M102 748q0 210 103.5 387.5t282 281t389.5 103.5q158 0 301 -61t247 -164.5t165 -246.5t61 -300q0 -158 -61 -301.5t-165 -247t-247 -165t-301 -61.5q-211 0 -389.5 104t-282 282t-103.5 389zM289 748q0 -163 77 -301.5t212.5 -220t298.5 -81.5q121 0 229.5 48t186.5 129 t123.5 192t45.5 234q0 122 -45.5 232.5t-123 191.5t-186.5 128.5t-230 47.5t-230.5 -47.5t-187.5 -128.5t-124 -191.5t-46 -232.5zM723 1858l100 100l230 -234l-101 -98z" />
<glyph unicode="&#xd3;" d="M102 748q0 210 103.5 387.5t282 281t389.5 103.5q158 0 301 -61t247 -164.5t165 -246.5t61 -300q0 -158 -61 -301.5t-165 -247t-247 -165t-301 -61.5q-211 0 -389.5 104t-282 282t-103.5 389zM289 748q0 -163 77 -301.5t212.5 -220t298.5 -81.5q121 0 229.5 48t186.5 129 t123.5 192t45.5 234q0 122 -45.5 232.5t-123 191.5t-186.5 128.5t-230 47.5t-230.5 -47.5t-187.5 -128.5t-124 -191.5t-46 -232.5zM727 1714l229 236l101 -103l-230 -231z" />
<glyph unicode="&#xd4;" d="M102 748q0 210 103.5 387.5t282 281t389.5 103.5q158 0 301 -61t247 -164.5t165 -246.5t61 -300q0 -158 -61 -301.5t-165 -247t-247 -165t-301 -61.5q-211 0 -389.5 104t-282 282t-103.5 389zM289 748q0 -163 77 -301.5t212.5 -220t298.5 -81.5q121 0 229.5 48t186.5 129 t123.5 192t45.5 234q0 122 -45.5 232.5t-123 191.5t-186.5 128.5t-230 47.5t-230.5 -47.5t-187.5 -128.5t-124 -191.5t-46 -232.5zM629 1712l260 238l258 -238l-86 -92l-172 158l-174 -158z" />
<glyph unicode="&#xd5;" d="M102 748q0 210 103.5 387.5t282 281t389.5 103.5q158 0 301 -61t247 -164.5t165 -246.5t61 -300q0 -158 -61 -301.5t-165 -247t-247 -165t-301 -61.5q-211 0 -389.5 104t-282 282t-103.5 389zM289 748q0 -163 77 -301.5t212.5 -220t298.5 -81.5q121 0 229.5 48t186.5 129 t123.5 192t45.5 234q0 122 -45.5 232.5t-123 191.5t-186.5 128.5t-230 47.5t-230.5 -47.5t-187.5 -128.5t-124 -191.5t-46 -232.5zM545 1663q-2 99 53 166t145 67q41 0 77 -14t62.5 -33.5t50 -39.5t49.5 -33.5t52 -12.5q39 0 58.5 32t21.5 79h119q2 -98 -53.5 -166.5 t-145.5 -69.5q-50 0 -94.5 21t-71.5 46t-61 46t-64 21q-35 1 -56 -30t-23 -79h-119z" />
<glyph unicode="&#xd6;" d="M102 748q0 210 103.5 387.5t282 281t389.5 103.5q158 0 301 -61t247 -164.5t165 -246.5t61 -300q0 -158 -61 -301.5t-165 -247t-247 -165t-301 -61.5q-211 0 -389.5 104t-282 282t-103.5 389zM289 748q0 -163 77 -301.5t212.5 -220t298.5 -81.5q121 0 229.5 48t186.5 129 t123.5 192t45.5 234q0 122 -45.5 232.5t-123 191.5t-186.5 128.5t-230 47.5t-230.5 -47.5t-187.5 -128.5t-124 -191.5t-46 -232.5zM596 1763q0 51 36 87t87 36q50 0 85.5 -36t35.5 -87t-35.5 -86t-85.5 -35q-51 0 -87 35t-36 86zM936 1763q0 51 36 87t87 36q50 0 85.5 -36 t35.5 -87t-35.5 -86t-85.5 -35q-51 0 -87 35t-36 86z" />
<glyph unicode="&#xd7;" horiz-adv-x="882" d="M143 961l111 108l188 -188l189 188l108 -111l-186 -186l178 -180l-108 -111l-181 181l-180 -181l-110 109l182 182z" />
<glyph unicode="&#xd8;" d="M102 748q0 210 103.5 387.5t282 281t389.5 103.5q162 0 309 -64l74 123h165l-114 -193q157 -105 248.5 -273.5t91.5 -364.5q0 -158 -61 -301.5t-165 -247t-247 -165t-301 -61.5q-193 0 -359 86l-90 -151h-166l137 229q-139 107 -218 267.5t-79 343.5zM289 748 q0 -134 54 -253t149 -204l606 1014q-104 43 -221 43q-121 0 -230.5 -47.5t-187.5 -128.5t-124 -191.5t-46 -232.5zM608 211q123 -66 269 -66q121 0 229.5 48t186.5 129t123.5 192t45.5 234q0 148 -64.5 276t-176.5 213z" />
<glyph unicode="&#xd9;" horiz-adv-x="1347" d="M182 432v1059h183v-1036q0 -128 88.5 -214.5t220.5 -86.5t220.5 86.5t88.5 214.5v1036h182v-1059q0 -198 -140 -328.5t-351 -130.5t-351.5 130.5t-140.5 328.5zM508 1851l100 101l230 -234l-101 -98z" />
<glyph unicode="&#xda;" horiz-adv-x="1347" d="M182 432v1059h183v-1036q0 -128 88.5 -214.5t220.5 -86.5t220.5 86.5t88.5 214.5v1036h182v-1059q0 -198 -140 -328.5t-351 -130.5t-351.5 130.5t-140.5 328.5zM512 1710l229 236l101 -103l-230 -231z" />
<glyph unicode="&#xdb;" horiz-adv-x="1347" d="M182 432v1059h183v-1036q0 -128 88.5 -214.5t220.5 -86.5t220.5 86.5t88.5 214.5v1036h182v-1059q0 -198 -140 -328.5t-351 -130.5t-351.5 130.5t-140.5 328.5zM414 1706l260 238l258 -238l-86 -92l-172 158l-174 -158z" />
<glyph unicode="&#xdc;" horiz-adv-x="1347" d="M182 432v1059h183v-1036q0 -128 88.5 -214.5t220.5 -86.5t220.5 86.5t88.5 214.5v1036h182v-1059q0 -198 -140 -328.5t-351 -130.5t-351.5 130.5t-140.5 328.5zM381 1757q0 51 36 87t87 36q50 0 85.5 -36t35.5 -87t-35.5 -86t-85.5 -35q-51 0 -87 35t-36 86zM721 1757 q0 51 36 87t87 36q50 0 85.5 -36t35.5 -87t-35.5 -86t-85.5 -35q-51 0 -87 35t-36 86z" />
<glyph unicode="&#xdd;" horiz-adv-x="1054" d="M0 1491h203l334 -713l319 713h199l-697 -1491h-198l280 582zM379 1710l229 236l101 -103l-230 -231z" />
<glyph unicode="&#xde;" horiz-adv-x="1232" d="M203 0v1491h184v-291h307q194 0 325.5 -128.5t131.5 -315.5t-131.5 -318t-325.5 -131h-307v-307h-184zM387 475h295q127 0 205 81.5t78 199.5q0 119 -78.5 198.5t-204.5 79.5h-295v-559z" />
<glyph unicode="&#xdf;" horiz-adv-x="1296" d="M203 0v963q0 139 38 247.5t102.5 174.5t144.5 99.5t169 33.5q162 0 274.5 -98.5t112.5 -231.5q0 -51 -20.5 -101.5t-50 -89.5t-59 -73.5t-50 -66t-20.5 -54.5q0 -21 19 -43.5t49 -44.5t66.5 -47.5t73 -58t66.5 -70t49 -90t19 -111.5q0 -112 -59.5 -196.5t-150.5 -125.5 t-196 -41q-166 0 -266 93l74 145q76 -66 182 -66q96 0 160.5 55t64.5 152q0 60 -33.5 112t-81.5 90t-95.5 73t-81 77t-33.5 87q0 36 20 72.5t48 68.5t56 66t48 77t20 88q0 83 -67 133t-146 50q-110 0 -187 -100t-77 -300v-948h-182z" />
<glyph unicode="&#xe0;" horiz-adv-x="1257" d="M0 0l633 1522l624 -1522h-192l-137 354h-598l-137 -354h-193zM389 504h481l-237 618zM467 1851l100 101l230 -234l-101 -98z" />
<glyph unicode="&#xe1;" horiz-adv-x="1257" d="M0 0l633 1522l624 -1522h-192l-137 354h-598l-137 -354h-193zM389 504h481l-237 618zM471 1710l229 236l101 -103l-230 -231z" />
<glyph unicode="&#xe2;" horiz-adv-x="1257" d="M0 0l633 1522l624 -1522h-192l-137 354h-598l-137 -354h-193zM373 1706l260 238l258 -238l-86 -92l-172 158l-174 -158zM389 504h481l-237 618z" />
<glyph unicode="&#xe3;" horiz-adv-x="1257" d="M0 0l633 1522l624 -1522h-192l-137 354h-598l-137 -354h-193zM289 1657q-2 99 53 166t145 67q41 0 77 -14t62.5 -33.5t50 -39.5t49.5 -33.5t52 -12.5q39 0 58.5 32t21.5 79h119q2 -98 -53.5 -166.5t-145.5 -69.5q-50 0 -94.5 21t-71.5 45.5t-61 45.5t-64 21 q-35 1 -56 -29.5t-23 -78.5h-119zM389 504h481l-237 618z" />
<glyph unicode="&#xe4;" horiz-adv-x="1257" d="M0 0l633 1522l624 -1522h-192l-137 354h-598l-137 -354h-193zM340 1757q0 51 36 87t87 36q50 0 85.5 -36t35.5 -87t-35.5 -86t-85.5 -35q-51 0 -87 35t-36 86zM389 504h481l-237 618zM680 1757q0 51 36 87t87 36q50 0 85.5 -36t35.5 -87t-35.5 -86t-85.5 -35 q-51 0 -87 35t-36 86z" />
<glyph unicode="&#xe5;" horiz-adv-x="1257" d="M0 0l633 1522l624 -1522h-192l-137 354h-598l-137 -354h-193zM389 504h481l-237 618zM453 1765q0 75 53 127t127 52q75 0 127.5 -52t52.5 -127q0 -74 -52.5 -127t-127.5 -53q-73 0 -126.5 53.5t-53.5 126.5zM547 1765q0 -35 25.5 -61.5t60.5 -26.5q36 0 61 26t25 62 t-25 62t-61 26q-35 0 -60.5 -25.5t-25.5 -62.5z" />
<glyph unicode="&#xe6;" horiz-adv-x="1843" d="M-16 0l958 1491h813v-166h-651v-475h582v-164h-582v-520h651v-166h-833v391h-476l-251 -391h-211zM524 543h398v624z" />
<glyph unicode="&#xe7;" horiz-adv-x="1460" d="M102 745q0 159 60 302.5t162 247t244 164.5t300 61q287 0 541 -201l-111 -133q-205 162 -426 162q-161 0 -295 -79.5t-211 -218t-77 -305.5q0 -166 77 -303.5t211 -217t295 -79.5q227 0 426 160l109 -133q-247 -199 -539 -199q-158 0 -300 60.5t-244 163.5t-162 246 t-60 302zM643 -393q52 -17 102 -17q64 0 105 31.5t41 81.5q0 88 -123 88h-66l17 113h72q107 0 170 -53.5t63 -145.5q0 -100 -74.5 -166.5t-189.5 -66.5q-58 0 -117 20v115z" />
<glyph unicode="&#xe8;" horiz-adv-x="1189" d="M203 0v1491h182h682v-164h-682v-477h598v-164h-598v-520h682v-166h-793h-71zM483 1855l101 101l229 -234l-100 -98z" />
<glyph unicode="&#xe9;" horiz-adv-x="1189" d="M203 0v1491h182h682v-164h-682v-477h598v-164h-598v-520h682v-166h-793h-71zM487 1714l230 236l100 -103l-229 -231z" />
<glyph unicode="&#xea;" horiz-adv-x="1189" d="M203 0v1491h182h682v-164h-682v-477h598v-164h-598v-520h682v-166h-793h-71zM389 1710l260 238l258 -238l-86 -92l-172 158l-174 -158z" />
<glyph unicode="&#xeb;" horiz-adv-x="1189" d="M203 0v1491h182h682v-164h-682v-477h598v-164h-598v-520h682v-166h-793h-71zM356 1761q0 51 36 87t87 36q50 0 85.5 -36t35.5 -87t-35.5 -86t-85.5 -35q-51 0 -87 35t-36 86zM696 1761q0 51 36 87t87 36q50 0 85.5 -36t35.5 -87t-35.5 -86t-85.5 -35q-51 0 -87 35t-36 86 z" />
<glyph unicode="&#xec;" horiz-adv-x="505" d="M88 1851l100 101l230 -234l-101 -98zM162 0v1491h182v-1491h-182z" />
<glyph unicode="&#xed;" horiz-adv-x="505" d="M92 1710l230 236l100 -103l-229 -231zM162 0v1491h182v-1491h-182z" />
<glyph unicode="&#xee;" horiz-adv-x="505" d="M-6 1706l260 238l258 -238l-86 -92l-172 158l-174 -158zM162 0v1491h182v-1491h-182z" />
<glyph unicode="&#xef;" horiz-adv-x="505" d="M-39 1757q0 51 36 87t87 36q50 0 85.5 -36t35.5 -87t-35.5 -86t-85.5 -35q-51 0 -87 35t-36 86zM162 0v1491h182v-1491h-182zM301 1757q0 51 36 87t87 36q50 0 85.5 -36t35.5 -87t-35.5 -86t-85.5 -35q-51 0 -87 35t-36 86z" />
<glyph unicode="&#xf0;" horiz-adv-x="1581" d="M90 694v160h203v637h182h301q201 0 363 -99.5t252 -270t90 -376.5q0 -204 -90 -374.5t-252 -270.5t-363 -100h-422h-61v694h-203zM475 166h270q119 0 222 46.5t173.5 125t111 184.5t40.5 223q0 86 -22 169t-68 157.5t-109.5 131t-153.5 89.5t-194 33h-270v-471h361v-160 h-361v-528z" />
<glyph unicode="&#xf1;" horiz-adv-x="1515" d="M203 0v1522l930 -1080v1049h180v-1522l-930 1084v-1053h-180zM418 1657q-2 99 53 166t145 67q41 0 77 -14t62.5 -33.5t50 -39.5t49.5 -33.5t52 -12.5q39 0 58.5 32t21.5 79h119q2 -98 -53.5 -166.5t-145.5 -69.5q-50 0 -94.5 21t-71.5 45.5t-61 45.5t-64 21 q-35 1 -56 -29.5t-23 -78.5h-119z" />
<glyph unicode="&#xf2;" d="M102 748q0 210 103.5 387.5t282 281t389.5 103.5q158 0 301 -61t247 -164.5t165 -246.5t61 -300q0 -158 -61 -301.5t-165 -247t-247 -165t-301 -61.5q-211 0 -389.5 104t-282 282t-103.5 389zM289 748q0 -163 77 -301.5t212.5 -220t298.5 -81.5q121 0 229.5 48t186.5 129 t123.5 192t45.5 234q0 122 -45.5 232.5t-123 191.5t-186.5 128.5t-230 47.5t-230.5 -47.5t-187.5 -128.5t-124 -191.5t-46 -232.5zM719 1851l100 101l230 -234l-101 -98z" />
<glyph unicode="&#xf3;" d="M102 748q0 210 103.5 387.5t282 281t389.5 103.5q158 0 301 -61t247 -164.5t165 -246.5t61 -300q0 -158 -61 -301.5t-165 -247t-247 -165t-301 -61.5q-211 0 -389.5 104t-282 282t-103.5 389zM289 748q0 -163 77 -301.5t212.5 -220t298.5 -81.5q121 0 229.5 48t186.5 129 t123.5 192t45.5 234q0 122 -45.5 232.5t-123 191.5t-186.5 128.5t-230 47.5t-230.5 -47.5t-187.5 -128.5t-124 -191.5t-46 -232.5zM723 1708l229 236l101 -103l-230 -231z" />
<glyph unicode="&#xf4;" d="M102 748q0 210 103.5 387.5t282 281t389.5 103.5q158 0 301 -61t247 -164.5t165 -246.5t61 -300q0 -158 -61 -301.5t-165 -247t-247 -165t-301 -61.5q-211 0 -389.5 104t-282 282t-103.5 389zM289 748q0 -163 77 -301.5t212.5 -220t298.5 -81.5q121 0 229.5 48t186.5 129 t123.5 192t45.5 234q0 122 -45.5 232.5t-123 191.5t-186.5 128.5t-230 47.5t-230.5 -47.5t-187.5 -128.5t-124 -191.5t-46 -232.5zM625 1706l260 238l258 -238l-86 -92l-172 158l-174 -158z" />
<glyph unicode="&#xf5;" d="M102 748q0 210 103.5 387.5t282 281t389.5 103.5q158 0 301 -61t247 -164.5t165 -246.5t61 -300q0 -158 -61 -301.5t-165 -247t-247 -165t-301 -61.5q-211 0 -389.5 104t-282 282t-103.5 389zM289 748q0 -163 77 -301.5t212.5 -220t298.5 -81.5q121 0 229.5 48t186.5 129 t123.5 192t45.5 234q0 122 -45.5 232.5t-123 191.5t-186.5 128.5t-230 47.5t-230.5 -47.5t-187.5 -128.5t-124 -191.5t-46 -232.5zM541 1657q-2 99 53 166t145 67q41 0 77 -14t62.5 -33.5t50 -39.5t49.5 -33.5t52 -12.5q39 0 58.5 32t21.5 79h119q2 -98 -53.5 -166.5 t-145.5 -69.5q-50 0 -94.5 21t-71.5 45.5t-61 45.5t-64 21q-36 1 -57 -29.5t-23 -78.5h-118z" />
<glyph unicode="&#xf6;" d="M102 748q0 210 103.5 387.5t282 281t389.5 103.5q158 0 301 -61t247 -164.5t165 -246.5t61 -300q0 -158 -61 -301.5t-165 -247t-247 -165t-301 -61.5q-211 0 -389.5 104t-282 282t-103.5 389zM289 748q0 -163 77 -301.5t212.5 -220t298.5 -81.5q121 0 229.5 48t186.5 129 t123.5 192t45.5 234q0 122 -45.5 232.5t-123 191.5t-186.5 128.5t-230 47.5t-230.5 -47.5t-187.5 -128.5t-124 -191.5t-46 -232.5zM592 1757q0 51 36 87t87 36q50 0 85.5 -36t35.5 -87t-35.5 -86t-85.5 -35q-51 0 -87 35t-36 86zM932 1757q0 51 36 87t87 36q50 0 85.5 -36 t35.5 -87t-35.5 -86t-85.5 -35q-51 0 -87 35t-36 86z" />
<glyph unicode="&#xf7;" horiz-adv-x="880" d="M96 696v154h688v-154h-688zM322 502q0 51 34 86t84 35t84.5 -35t34.5 -86q0 -48 -35 -83.5t-84 -35.5t-83.5 35.5t-34.5 83.5zM322 1042q0 51 34 86t84 35t84.5 -35t34.5 -86q0 -49 -34.5 -83.5t-84.5 -34.5t-84 34t-34 84z" />
<glyph unicode="&#xf8;" d="M102 748q0 210 103.5 387.5t282 281t389.5 103.5q162 0 309 -64l74 123h165l-114 -193q157 -105 248.5 -273.5t91.5 -364.5q0 -158 -61 -301.5t-165 -247t-247 -165t-301 -61.5q-193 0 -359 86l-90 -151h-166l137 229q-139 107 -218 267.5t-79 343.5zM289 748 q0 -134 54 -253t149 -204l606 1014q-104 43 -221 43q-121 0 -230.5 -47.5t-187.5 -128.5t-124 -191.5t-46 -232.5zM608 211q123 -66 269 -66q121 0 229.5 48t186.5 129t123.5 192t45.5 234q0 148 -64.5 276t-176.5 213z" />
<glyph unicode="&#xf9;" horiz-adv-x="1347" d="M182 432v1059h183v-1036q0 -128 88.5 -214.5t220.5 -86.5t220.5 86.5t88.5 214.5v1036h182v-1059q0 -198 -140 -328.5t-351 -130.5t-351.5 130.5t-140.5 328.5zM512 1851l100 101l230 -234l-101 -98z" />
<glyph unicode="&#xfa;" horiz-adv-x="1347" d="M182 432v1059h183v-1036q0 -128 88.5 -214.5t220.5 -86.5t220.5 86.5t88.5 214.5v1036h182v-1059q0 -198 -140 -328.5t-351 -130.5t-351.5 130.5t-140.5 328.5zM516 1710l229 236l101 -103l-230 -231z" />
<glyph unicode="&#xfb;" horiz-adv-x="1347" d="M182 432v1059h183v-1036q0 -128 88.5 -214.5t220.5 -86.5t220.5 86.5t88.5 214.5v1036h182v-1059q0 -198 -140 -328.5t-351 -130.5t-351.5 130.5t-140.5 328.5zM418 1706l260 238l258 -238l-86 -92l-172 158l-174 -158z" />
<glyph unicode="&#xfc;" horiz-adv-x="1347" d="M182 432v1059h183v-1036q0 -128 88.5 -214.5t220.5 -86.5t220.5 86.5t88.5 214.5v1036h182v-1059q0 -198 -140 -328.5t-351 -130.5t-351.5 130.5t-140.5 328.5zM385 1757q0 51 36 87t87 36q50 0 85.5 -36t35.5 -87t-35.5 -86t-85.5 -35q-51 0 -87 35t-36 86zM725 1757 q0 51 36 87t87 36q50 0 85.5 -36t35.5 -87t-35.5 -86t-85.5 -35q-51 0 -87 35t-36 86z" />
<glyph unicode="&#xfd;" horiz-adv-x="1083" d="M0 1491h205l334 -709l340 709h204l-452 -909v-582h-182v588zM389 1710l229 236l101 -103l-230 -231z" />
<glyph unicode="&#xfe;" horiz-adv-x="1232" d="M203 0v1491h184v-291h307q194 0 325.5 -128.5t131.5 -315.5t-131.5 -318t-325.5 -131h-307v-307h-184zM387 475h295q127 0 205 81.5t78 199.5q0 119 -78.5 198.5t-204.5 79.5h-295v-559z" />
<glyph unicode="&#xff;" horiz-adv-x="1083" d="M0 1491h205l334 -709l340 709h204l-452 -909v-582h-182v588zM258 1757q0 51 36 87t87 36q50 0 85.5 -36t35.5 -87t-35.5 -86t-85.5 -35q-51 0 -87 35t-36 86zM598 1757q0 51 36 87t87 36q50 0 85.5 -36t35.5 -87t-35.5 -86t-85.5 -35q-51 0 -87 35t-36 86z" />
<glyph unicode="&#x152;" horiz-adv-x="1929" d="M68 745q0 153 58 291.5t156.5 238t235.5 158t289 58.5h1034v-166h-672v-475h603v-164h-603v-520h672v-166h-1034q-152 0 -289 59t-235.5 158.5t-156.5 237.5t-58 290zM248 745q0 -158 76 -291.5t207.5 -210.5t287.5 -77h168v1159h-168q-156 0 -287.5 -77t-207.5 -210.5 t-76 -292.5z" />
<glyph unicode="&#x153;" horiz-adv-x="1929" d="M68 745q0 153 58 291.5t156.5 238t235.5 158t289 58.5h1034v-166h-672v-475h603v-164h-603v-520h672v-166h-1034q-152 0 -289 59t-235.5 158.5t-156.5 237.5t-58 290zM248 745q0 -158 76 -291.5t207.5 -210.5t287.5 -77h168v1159h-168q-156 0 -287.5 -77t-207.5 -210.5 t-76 -292.5z" />
<glyph unicode="&#x178;" horiz-adv-x="1054" d="M0 1491h203l334 -713l319 713h199l-697 -1491h-198l280 582zM248 1757q0 51 36 87t87 36q50 0 85.5 -36t35.5 -87t-35.5 -86t-85.5 -35q-51 0 -87 35t-36 86zM588 1757q0 51 36 87t87 36q50 0 85 -36t35 -87t-35 -86t-85 -35q-51 0 -87 35t-36 86z" />
<glyph unicode="&#x2c6;" horiz-adv-x="694" d="M88 1665l260 238l258 -238l-86 -92l-172 158l-174 -158z" />
<glyph unicode="&#x2dc;" horiz-adv-x="835" d="M74 1616q-2 99 53 166t145 67q41 0 77 -14t62.5 -33.5t50 -39.5t49.5 -33.5t52 -12.5q39 0 58.5 32t21.5 79h119q2 -98 -53.5 -166.5t-145.5 -69.5q-50 0 -94.5 21t-71.5 45.5t-61 45.5t-64 21q-35 1 -56 -29.5t-23 -78.5h-119z" />
<glyph unicode="&#x2000;" horiz-adv-x="979" />
<glyph unicode="&#x2001;" horiz-adv-x="1958" />
<glyph unicode="&#x2002;" horiz-adv-x="979" />
<glyph unicode="&#x2003;" horiz-adv-x="1958" />
<glyph unicode="&#x2004;" horiz-adv-x="652" />
<glyph unicode="&#x2005;" horiz-adv-x="489" />
<glyph unicode="&#x2006;" horiz-adv-x="326" />
<glyph unicode="&#x2007;" horiz-adv-x="326" />
<glyph unicode="&#x2008;" horiz-adv-x="244" />
<glyph unicode="&#x2009;" horiz-adv-x="391" />
<glyph unicode="&#x200a;" horiz-adv-x="108" />
<glyph unicode="&#x2010;" horiz-adv-x="841" d="M119 688v164h604v-164h-604z" />
<glyph unicode="&#x2011;" horiz-adv-x="841" d="M119 688v164h604v-164h-604z" />
<glyph unicode="&#x2012;" horiz-adv-x="841" d="M119 688v164h604v-164h-604z" />
<glyph unicode="&#x2013;" horiz-adv-x="1021" d="M129 688v164h784v-164h-784z" />
<glyph unicode="&#x2014;" horiz-adv-x="1386" d="M135 688v164h1147v-164h-1147z" />
<glyph unicode="&#x2018;" horiz-adv-x="550" d="M139 1307q0 96 74.5 163t181.5 78l11 -86q-35 -3 -68 -18.5t-45 -36.5q58 -1 87.5 -34t29.5 -81q0 -53 -38 -94t-96 -41q-55 0 -96 42.5t-41 107.5z" />
<glyph unicode="&#x2019;" horiz-adv-x="542" d="M133 1415q0 54 37 94.5t96 40.5q55 0 96 -42t41 -107q0 -96 -75.5 -163.5t-182.5 -78.5l-8 86q35 3 68 18.5t45 36.5q-58 1 -87.5 34t-29.5 81z" />
<glyph unicode="&#x201a;" horiz-adv-x="542" d="M133 90q0 54 37 94.5t96 40.5q55 0 96 -42t41 -107q0 -96 -75.5 -163.5t-182.5 -78.5l-8 86q35 3 68 18.5t45 36.5q-58 1 -87.5 34t-29.5 81z" />
<glyph unicode="&#x201c;" horiz-adv-x="700" d="M57 1307q0 95 76 162.5t184 78.5l9 -86q-35 -3 -68 -18.5t-45 -36.5q58 -1 87.5 -34t29.5 -81q0 -54 -37 -94.5t-96 -40.5q-55 0 -97.5 42.5t-42.5 107.5zM371 1307q0 96 75 163t181 78l10 -86q-36 -3 -69.5 -18.5t-43.5 -36.5q57 -1 87 -34t30 -81q0 -53 -37.5 -94 t-95.5 -41q-55 0 -96 42.5t-41 107.5z" />
<glyph unicode="&#x201d;" horiz-adv-x="700" d="M57 1415q0 53 39 93t97 40q54 0 94.5 -41.5t40.5 -105.5q0 -95 -74.5 -163t-179.5 -79l-11 86q35 3 68 18t45 35q-57 1 -88 35t-31 82zM369 1415q0 53 37.5 93t95.5 40q56 0 97.5 -41.5t41.5 -105.5q0 -96 -75.5 -163.5t-182.5 -78.5l-10 86q36 3 69 18t45 35 q-58 1 -88 35t-30 82z" />
<glyph unicode="&#x201e;" horiz-adv-x="831" d="M143 90q0 50 35 87.5t90 37.5q51 0 89 -39t38 -100q0 -89 -69 -152t-168 -74l-8 80q32 3 62 17.5t40 34.5q-53 1 -81 32.5t-28 75.5zM434 90q0 49 35 87t88 38t92 -39t39 -100q0 -89 -70.5 -152t-171.5 -74l-10 80q34 3 65.5 17.5t41.5 34.5q-54 1 -81.5 32t-27.5 76z " />
<glyph unicode="&#x2022;" horiz-adv-x="903" d="M197 723q0 105 75 178.5t181 73.5t180 -73t74 -179t-74.5 -182t-179.5 -76q-106 0 -181 76t-75 182z" />
<glyph unicode="&#x2026;" horiz-adv-x="1308" d="M147 94q0 51 36 87t87 36q50 0 85.5 -36t35.5 -87t-35.5 -86t-85.5 -35q-51 0 -87 35t-36 86zM532 94q0 51 36 87t87 36q50 0 85.5 -36t35.5 -87t-35.5 -86t-85.5 -35q-51 0 -87 35t-36 86zM918 94q0 51 35.5 87t86.5 36q50 0 85.5 -36t35.5 -87t-35.5 -86t-85.5 -35 q-51 0 -86.5 35t-35.5 86z" />
<glyph unicode="&#x202f;" horiz-adv-x="391" />
<glyph unicode="&#x2039;" horiz-adv-x="632" d="M90 772l268 318h160l-268 -318l268 -315h-160z" />
<glyph unicode="&#x203a;" horiz-adv-x="632" d="M115 457l268 315l-268 318h159l269 -318l-269 -315h-159z" />
<glyph unicode="&#x205f;" horiz-adv-x="489" />
<glyph unicode="&#x20ac;" horiz-adv-x="1159" d="M61 569v129h134q0 8 -1 25t-1 25q0 12 1 34.5t1 32.5h-134v131h148q46 274 210.5 424t395.5 150q154 0 291 -93l-86 -137q-99 58 -201 58q-176 0 -284.5 -109t-145.5 -293h578v-131h-596q0 -11 -1 -33t-1 -34q0 -8 1 -25t1 -25h596v-129h-582q34 -194 144 -309t290 -115 q102 0 201 58l86 -142q-138 -88 -291 -88q-235 0 -401.5 156t-208.5 440h-144z" />
<glyph unicode="&#x2122;" horiz-adv-x="1032" d="M61 1399v92h365v-92h-133v-350h-98v350h-134zM514 1049v442h78l145 -231l150 231h84v-442h-101v268l-133 -207l-125 197v-258h-98z" />
<glyph unicode="&#x25fc;" horiz-adv-x="1495" d="M0 0v1495h1495v-1495h-1495z" />
</font>
</defs>
</svg>
