<?xml version="1.0" standalone="no"?>
<!DOCTYPE svg PUBLIC "-//W3C//DTD SVG 1.1//EN" "http://www.w3.org/Graphics/SVG/1.1/DTD/svg11.dtd" >
<svg xmlns="http://www.w3.org/2000/svg">
<metadata></metadata>
<defs>
<font id="guess_sansregular" horiz-adv-x="1234" >
<font-face units-per-em="2048" ascent="1638" descent="-410" />
<missing-glyph horiz-adv-x="628" />
<glyph horiz-adv-x="0" />
<glyph horiz-adv-x="682" />
<glyph unicode=" "  horiz-adv-x="628" />
<glyph unicode="&#x09;" horiz-adv-x="628" />
<glyph unicode="&#xa0;" horiz-adv-x="628" />
<glyph unicode="!" horiz-adv-x="677" d="M233 84q0 49 32 82t77 33t77 -33t32 -82q0 -46 -32.5 -79.5t-76.5 -33.5t-76.5 33.5t-32.5 79.5zM258 1493h168l-14 -1151h-140z" />
<glyph unicode="&#x22;" horiz-adv-x="667" d="M139 1489h154l-4 -463h-146zM418 1489h153l-4 -463h-145z" />
<glyph unicode="#" horiz-adv-x="1460" d="M111 412l41 141h213l102 360h-234l39 142h236l129 452h147l-129 -452h332l129 452h148l-129 -452h215l-39 -142h-215l-105 -360h248l-41 -141h-246l-123 -428h-147l121 428h-330l-123 -428h-147l121 428h-213zM512 553h332l102 360h-330z" />
<glyph unicode="$" horiz-adv-x="1048" d="M72 217l110 90q113 -156 277 -180v598q-58 27 -98.5 50t-87 59t-74.5 75t-47 94.5t-19 120.5q0 88 37.5 167.5t113 138t175.5 75.5v135h137v-135q175 -27 313 -180l-102 -94q-99 105 -211 131v-547q49 -22 78 -36t73 -39t70.5 -46.5t58 -53.5t48.5 -65.5t29 -78.5t12 -95 q0 -146 -102 -265.5t-267 -147.5v-140h-137v136q-226 23 -387 233zM274 1126q0 -84 48 -140t137 -105v479q-86 -22 -135.5 -88t-49.5 -146zM596 133q102 26 163.5 102t61.5 166t-58 149t-167 112v-529z" />
<glyph unicode="%" horiz-adv-x="1640" d="M80 1169q0 143 102 246t246 103q145 0 246.5 -102t101.5 -247t-102.5 -246.5t-245.5 -101.5q-145 0 -246.5 101.5t-101.5 246.5zM127 0l1192 1489h174l-1190 -1489h-176zM213 1169q0 -90 62.5 -152.5t152.5 -62.5t152.5 62.5t62.5 152.5q0 89 -63 152t-152 63 q-90 0 -152.5 -62.5t-62.5 -152.5zM862 330q0 145 102 246.5t248 101.5q145 0 247 -101.5t102 -246.5q0 -144 -103 -246t-246 -102q-145 0 -247.5 101.5t-102.5 246.5zM995 330q0 -89 63 -152t154 -63q89 0 152 63t63 152q0 90 -62.5 152.5t-152.5 62.5q-91 0 -154 -63 t-63 -152z" />
<glyph unicode="&#x26;" horiz-adv-x="1335" d="M57 416q0 72 20 137t58.5 120t81.5 99t100 90q-77 160 -77 303q0 159 96.5 256t245.5 97q127 0 207.5 -75.5t80.5 -185.5q0 -31 -6 -60.5t-21 -58t-28.5 -51t-41 -50t-45 -44.5t-54.5 -44.5t-55 -41t-60.5 -43t-58.5 -41.5q82 -130 207.5 -257.5t273.5 -233.5 q90 141 90 332h139q0 -238 -112 -412q125 -78 235 -125l-57 -131q-129 58 -270 149q-89 -85 -204 -128.5t-239 -43.5q-116 0 -212.5 35.5t-160 96.5t-98.5 141.5t-35 169.5zM203 416q0 -128 97.5 -215.5t264.5 -87.5q189 0 324 114q-151 111 -281.5 243t-218.5 269 q-89 -74 -137.5 -150.5t-48.5 -172.5zM381 1165q0 -103 51 -217q13 9 50 35t50.5 36t44 32.5t43.5 34.5t35 32.5t32 35t21.5 33.5t16 37.5t4.5 37.5q0 52 -44 85t-105 33q-90 0 -144.5 -57.5t-54.5 -157.5z" />
<glyph unicode="'" horiz-adv-x="389" d="M119 1489h151l-4 -463h-145z" />
<glyph unicode="(" horiz-adv-x="835" d="M119 743q0 283 121.5 552.5t357.5 488.5l78 -94q-397 -447 -397 -947q0 -498 397 -948l-74 -96q-239 220 -361 489.5t-122 554.5z" />
<glyph unicode=")" horiz-adv-x="835" d="M160 -205q397 446 397 948q0 500 -397 947l80 94q234 -219 355.5 -488.5t121.5 -552.5q0 -285 -121.5 -554t-359.5 -490z" />
<glyph unicode="*" horiz-adv-x="733" d="M84 1063l188 123l-188 121l55 86l178 -115v211h103v-211l176 115l55 -86l-188 -121l188 -121l-55 -88l-176 115v-211h-103v211l-178 -115z" />
<glyph unicode="+" horiz-adv-x="886" d="M113 702v138h264v266h137v-266h266v-138h-266v-264h-137v264h-264z" />
<glyph unicode="," horiz-adv-x="608" d="M188 88q0 46 31 80.5t84 34.5q49 0 83 -33t34 -86q0 -60 -43.5 -120t-140.5 -107l-31 67q50 26 74 60q-41 6 -66 35.5t-25 68.5z" />
<glyph unicode="-" horiz-adv-x="833" d="M121 698v144h592v-144h-592z" />
<glyph unicode="." horiz-adv-x="528" d="M152 84q0 49 32.5 82t79.5 33q48 0 80.5 -33t32.5 -82q0 -46 -33 -79.5t-80 -33.5t-79.5 33.5t-32.5 79.5z" />
<glyph unicode="/" horiz-adv-x="1079" d="M33 -18l860 1527h154l-861 -1527h-153z" />
<glyph unicode="0" horiz-adv-x="1148" d="M98 748q0 148 28 282t83.5 245t149.5 177t214 66q98 0 178.5 -43.5t135 -117.5t92.5 -173.5t55 -209t17 -226.5q0 -118 -17 -228t-55 -210t-92.5 -174.5t-135 -118.5t-178.5 -44q-97 0 -177 44t-134 118t-92 174t-55 210.5t-17 228.5zM254 748q0 -93 10 -180t33.5 -171 t59 -146t91.5 -100t125 -38q87 0 152.5 57t101.5 152t53 202t17 224t-17 223t-53 200.5t-101.5 150.5t-152.5 56q-86 0 -150.5 -56.5t-99.5 -151t-52 -200.5t-17 -222z" />
<glyph unicode="1" horiz-adv-x="673" d="M39 1087l473 433v-1520h-152v1190l-237 -215z" />
<glyph unicode="2" horiz-adv-x="952" d="M49 0q56 86 154 236q313 479 399 633t86 264q0 102 -65 169.5t-158 67.5q-78 0 -143.5 -47t-102.5 -137l-127 63q55 127 157.5 198t221.5 71q154 0 263.5 -109.5t109.5 -271.5q0 -47 -7.5 -90.5t-33 -103.5t-46 -102t-77 -132.5t-93 -146.5t-126.5 -193t-148 -226h566 v-143h-830z" />
<glyph unicode="3" horiz-adv-x="964" d="M41 244l125 67q41 -86 118.5 -138t174.5 -52q136 0 223.5 87t87.5 222q0 127 -83 208t-212 81h-164v141h95l30 -2v2h39q109 0 182.5 74.5t73.5 183.5q0 111 -71 181.5t-183 70.5q-88 0 -155.5 -49.5t-92.5 -130.5l-127 51q43 126 147 201.5t236 75.5q172 0 284 -110.5 t112 -283.5q0 -98 -49 -185t-130 -142q100 -55 159 -152.5t59 -216.5q0 -198 -129 -326.5t-328 -128.5q-137 0 -250.5 74t-171.5 197z" />
<glyph unicode="4" horiz-adv-x="1017" d="M29 336v74l778 1083v-1018h102v-139h-102v-336h-145v336h-633zM244 475h418v592z" />
<glyph unicode="5" horiz-adv-x="933" d="M39 152l106 94q50 -59 120.5 -92t148.5 -33q136 0 232.5 96.5t96.5 231.5q0 139 -89.5 229t-223.5 92q-46 0 -95.5 -15.5t-69.5 -26t-54 -30.5l-82 39l111 752h555v-143h-433l-67 -465q76 26 151 26q190 0 318.5 -131t128.5 -327q0 -129 -63.5 -238.5t-173 -173.5 t-238.5 -64q-110 0 -209 47t-170 132z" />
<glyph unicode="6" horiz-adv-x="1030" d="M84 442q0 141 88 325.5t401 721.5h168q-39 -66 -109.5 -186.5t-104 -178t-76.5 -133.5t-72 -131q73 31 153 31q126 0 229.5 -64.5t159.5 -169.5t56 -227q0 -124 -60 -229.5t-163 -166.5t-224 -61q-89 0 -170.5 35.5t-142.5 96.5t-97 149t-36 188zM227 442q0 -133 88 -228 t215 -95q125 0 213 91.5t88 221.5q0 127 -84.5 221.5t-216.5 94.5q-108 0 -191 -72.5t-108 -179.5q-4 -36 -4 -54z" />
<glyph unicode="7" horiz-adv-x="815" d="M27 1346v143h798l-553 -1489h-155l501 1346h-591z" />
<glyph unicode="8" horiz-adv-x="1028" d="M59 418q0 119 59 219t158 158q-78 57 -122.5 141t-44.5 182q0 166 119 283t286 117q169 0 287.5 -117t118.5 -283q0 -99 -45 -183.5t-123 -139.5q100 -58 158.5 -157.5t58.5 -219.5q0 -186 -133 -315.5t-322 -129.5q-188 0 -321.5 130t-133.5 315zM205 420 q0 -123 91 -211t218 -88q129 0 220 88t91 211q0 122 -88 210t-215 91h-8h-8q-124 -3 -212.5 -91t-88.5 -210zM250 1118q0 -106 77 -181t187 -75t187 75t77 181q0 107 -77 181.5t-187 74.5t-187 -74.5t-77 -181.5z" />
<glyph unicode="9" horiz-adv-x="993" d="M49 1061q0 189 130.5 323t316.5 134q184 0 314 -134t130 -325q0 -39 -6.5 -77t-15 -72.5t-34 -90t-45.5 -98t-68.5 -130.5t-85.5 -153t-113 -199.5t-134 -238.5h-166q79 141 195.5 345t155.5 276q-72 -21 -129 -21q-128 0 -231 65t-158.5 170t-55.5 226zM195 1061 q0 -81 36 -153t106 -118.5t159 -46.5q94 0 168.5 55.5t111.5 143.5q19 56 19 115q0 131 -87.5 223t-211.5 92q-125 0 -213 -91t-88 -220z" />
<glyph unicode=":" horiz-adv-x="544" d="M160 518q0 49 32.5 82t79.5 33q48 0 80.5 -33t32.5 -82q0 -46 -33 -79t-80 -33t-79.5 33t-32.5 79zM160 1016q0 49 32 81.5t80 32.5t80.5 -32.5t32.5 -81.5q0 -46 -33 -79.5t-80 -33.5t-79.5 33.5t-32.5 79.5z" />
<glyph unicode=";" horiz-adv-x="544" d="M160 1016q0 49 32 81.5t80 32.5t80.5 -32.5t32.5 -81.5q0 -46 -33 -79.5t-80 -33.5t-79.5 33.5t-32.5 79.5zM162 526q0 43 30 76t82 33q46 0 78.5 -32t32.5 -83q0 -58 -42 -115.5t-136 -101.5l-29 64q51 28 70 57q-38 6 -62 34.5t-24 67.5z" />
<glyph unicode="&#x3c;" horiz-adv-x="794" d="M41 729l653 340v-137l-403 -203l403 -203v-137z" />
<glyph unicode="=" horiz-adv-x="868" d="M102 563v137h664v-137h-664zM102 868v138h664v-138h-664z" />
<glyph unicode="&#x3e;" horiz-adv-x="854" d="M160 389v137l403 203l-403 203v137l653 -340z" />
<glyph unicode="?" horiz-adv-x="1073" d="M139 1178q27 154 144 247t266 93q167 0 277 -112t110 -269q0 -71 -21 -135t-54 -111t-73 -89.5t-80.5 -79t-73.5 -70.5t-54 -72t-21 -76v-131h-143v133q0 57 20.5 108.5t54 91.5t73.5 78t79.5 76t73 78t54 91t20.5 108q0 99 -67.5 169t-176.5 70q-98 0 -175 -60t-98 -169 zM383 84q0 44 30.5 75t73.5 31t74 -31t31 -75q0 -41 -31 -71.5t-74 -30.5t-73.5 30.5t-30.5 71.5z" />
<glyph unicode="@" horiz-adv-x="1716" d="M104 748q0 209 103 386t280.5 280.5t386.5 103.5q140 0 261.5 -38t207.5 -102.5t147.5 -149.5t91.5 -180.5t30 -193.5q0 -191 -110.5 -316.5t-293.5 -125.5h-133v67q-92 -86 -225 -86q-145 0 -246.5 103t-101.5 252q0 145 101.5 246.5t246.5 101.5q131 0 225 -84v61h127 v-532q134 1 206.5 89t72.5 224q0 101 -40 194.5t-114.5 169t-192 121t-260.5 45.5q-173 0 -319.5 -85t-231.5 -231.5t-85 -319.5q0 -174 85 -322t231.5 -234t319.5 -86q130 0 247 49.5t204 139.5l92 -100q-107 -104 -247 -163t-296 -59q-157 0 -299.5 61.5t-245.5 165 t-164 247t-61 301.5zM631 748q0 -93 64.5 -159.5t156.5 -66.5q91 0 156 67t65 159q0 89 -65 154t-156 65q-92 0 -156.5 -64t-64.5 -155z" />
<glyph unicode="A" d="M0 0l621 1520l614 -1520h-168l-143 375h-613l-145 -375h-166zM365 510h507l-251 653z" />
<glyph unicode="B" horiz-adv-x="1232" d="M209 0v1489h156h297q155 0 262.5 -105.5t107.5 -257.5q0 -86 -38 -161t-105 -125q112 -55 180 -160.5t68 -233.5q0 -187 -132 -316.5t-321 -129.5h-373h-102zM365 141h313q129 0 219 90.5t90 219.5q0 126 -90 215.5t-219 89.5h-313v-615zM365 893h290q96 0 163 66t67 161 q0 96 -67 162t-163 66h-290v-455z" />
<glyph unicode="C" horiz-adv-x="1458" d="M104 745q0 159 60 302t162 246t244 164t300 61q286 0 535 -197l-94 -115q-100 80 -214.5 123t-226.5 43q-167 0 -307 -83.5t-220.5 -228t-80.5 -315.5q0 -172 80.5 -315.5t221 -226t308.5 -82.5q238 0 439 162l94 -113q-125 -102 -255 -149.5t-282 -47.5 q-157 0 -298.5 60.5t-243.5 163.5t-162 246t-60 302z" />
<glyph unicode="D" horiz-adv-x="1482" d="M209 0v1489h158h311q201 0 362 -100t249.5 -269.5t88.5 -374.5q0 -153 -52 -290t-143.5 -237.5t-222.5 -159t-282 -58.5h-418h-51zM367 143h282q165 0 297 82.5t203.5 219.5t71.5 300q0 111 -37.5 216.5t-106.5 192t-180.5 139.5t-247.5 53h-282v-1203z" />
<glyph unicode="E" horiz-adv-x="1187" d="M209 0v1489h158h696v-141h-696v-506h606v-144h-606v-555h696v-143h-797h-57z" />
<glyph unicode="F" horiz-adv-x="1153" d="M209 0v1489h158h659v-141h-659v-506h555v-144h-555v-698h-158z" />
<glyph unicode="G" horiz-adv-x="1654" d="M115 748q0 157 60 299t163 245.5t248.5 164.5t308.5 61q165 0 313.5 -60t257.5 -164l-92 -114q-92 85 -215.5 138.5t-261.5 53.5q-175 0 -318 -83.5t-224 -227t-81 -316.5q0 -167 83.5 -311t225.5 -228.5t306 -84.5q133 0 262 53t215 145v377h-424v140h565v-584 q-114 -133 -277 -206t-345 -73q-210 0 -387.5 104t-280 282t-102.5 389z" />
<glyph unicode="H" horiz-adv-x="1437" d="M209 0v1489h158v-647h704v647h158v-1489h-158v698h-704v-698h-158z" />
<glyph unicode="I" horiz-adv-x="483" d="M164 0v1489h158v-1489h-158z" />
<glyph unicode="J" horiz-adv-x="630" d="M41 -195q130 112 177.5 206t47.5 237v1241h156v-1229q0 -199 -59 -321t-222 -258z" />
<glyph unicode="K" horiz-adv-x="1275" d="M209 0v1489h160v-1489h-160zM387 743l649 746h193l-637 -723q53 -31 132 -127.5t154 -202.5t185 -232t213 -204h-211q-68 44 -144 128.5t-142 176t-131.5 181t-133.5 160.5t-127 97z" />
<glyph unicode="L" horiz-adv-x="1159" d="M209 0v1489h158v-1346h729v-143h-887z" />
<glyph unicode="M" horiz-adv-x="1787" d="M209 0v1520l686 -809l684 809v-1520h-156v1118l-528 -629l-530 629v-1118h-156z" />
<glyph unicode="N" horiz-adv-x="1511" d="M209 0v1520l940 -1127v1096h154v-1520l-938 1137v-1106h-156z" />
<glyph unicode="O" horiz-adv-x="1753" d="M104 748q0 156 61 298.5t164.5 246t246.5 164.5t301 61q210 0 388 -103.5t281 -280.5t103 -386q0 -158 -61 -301.5t-164 -247t-246 -165t-301 -61.5t-301 61.5t-246.5 165t-164.5 247t-61 301.5zM262 748q0 -170 81.5 -314t223 -228.5t310.5 -84.5q168 0 309 84t222 228 t81 315q0 126 -47.5 241.5t-129 199.5t-195.5 133.5t-240 49.5q-169 0 -310.5 -84t-223 -227.5t-81.5 -312.5z" />
<glyph unicode="P" horiz-adv-x="1222" d="M209 0v1489h160h321q188 0 318.5 -130t130.5 -315q0 -186 -130 -316t-319 -130h-321v-598h-160zM369 739h313q133 0 217 89t84 216q0 130 -84 217t-217 87h-313v-609z" />
<glyph unicode="Q" horiz-adv-x="1748" d="M104 748q0 156 61 298.5t164.5 246t246.5 164.5t301 61q210 0 388 -103.5t281 -280.5t103 -386q0 -251 -144.5 -452t-374.5 -280q20 -12 77.5 -47.5t85.5 -50t77 -36.5t95 -31t96 -9q128 0 202 74l84 -106q-111 -111 -286 -111h-7q-86 0 -164 23q-80 24 -143.5 60.5 t-123.5 74.5t-132.5 71t-146.5 45q-152 7 -289 70.5t-236 166.5t-157 243.5t-58 294.5zM262 748q0 -170 81.5 -314t223 -228.5t310.5 -84.5q168 0 309 84t222 228t81 315q0 126 -47.5 241.5t-129 199.5t-195.5 133.5t-240 49.5q-169 0 -310.5 -84t-223 -227.5t-81.5 -312.5z " />
<glyph unicode="R" horiz-adv-x="1247" d="M209 0v1489h153h359q178 0 301 -123.5t123 -298.5q0 -157 -102 -275t-255 -141q46 -27 93.5 -101.5t85.5 -158.5t101 -196.5t128 -194.5h-190q-42 56 -84.5 134t-73.5 144.5t-68 135t-71 116.5t-80 78.5t-97 30.5h-170v-639h-153zM362 780h338q127 0 211 81.5t84 203.5 t-85 202.5t-210 80.5h-338v-568z" />
<glyph unicode="S" horiz-adv-x="1056" d="M59 145l84 119q180 -143 367 -143q134 0 224.5 78.5t90.5 193.5q0 72 -38.5 127.5t-99.5 92t-135 69.5t-148 71t-135 84t-99.5 120.5t-38.5 170.5q0 171 123 280.5t317 109.5q95 0 192 -30t171 -83l-72 -117q-142 88 -287 88q-124 0 -206 -69t-82 -170q0 -71 38.5 -126.5 t100.5 -92.5t136.5 -70.5t149 -72t136.5 -85.5t100.5 -122t38.5 -171q0 -187 -130.5 -305.5t-342.5 -118.5q-248 0 -455 172z" />
<glyph unicode="T" horiz-adv-x="1110" d="M33 1346v143h1046v-143h-444v-1346h-158v1346h-444z" />
<glyph unicode="U" horiz-adv-x="1335" d="M188 426v1063h158v-1047q0 -131 93 -221t229 -90t228.5 90t92.5 221v1047h158v-1063q0 -196 -136 -324.5t-343 -128.5t-343.5 128.5t-136.5 324.5z" />
<glyph unicode="V" horiz-adv-x="1269" d="M0 1489h170l463 -1141l475 1141h162l-639 -1520z" />
<glyph unicode="W" horiz-adv-x="1839" d="M0 1489h162l391 -1118l367 827l366 -827l389 1118h164l-534 -1520l-385 899l-385 -899z" />
<glyph unicode="X" horiz-adv-x="1083" d="M20 0l429 805l-392 684h176l308 -547l309 547h174l-389 -684l428 -805h-174l-350 670l-346 -670h-173z" />
<glyph unicode="Y" horiz-adv-x="1028" d="M0 1489h178l344 -735l332 735h174l-696 -1489h-172l278 582z" />
<glyph unicode="Z" horiz-adv-x="1101" d="M61 0l717 1346h-626v143h866l-717 -1346h735v-143h-975z" />
<glyph unicode="[" horiz-adv-x="815" d="M266 -231v1921h373v-144h-219v-1634h219v-143h-373z" />
<glyph unicode="\" horiz-adv-x="995" d="M31 1509h155l777 -1527h-154z" />
<glyph unicode="]" horiz-adv-x="815" d="M176 -88h217v1634h-217v144h373v-1921h-373v143z" />
<glyph unicode="^" horiz-adv-x="935" d="M80 852l389 655l387 -655h-139l-248 426l-248 -426h-141z" />
<glyph unicode="_" horiz-adv-x="989" d="M47 -43h895v-141h-895v141z" />
<glyph unicode="`" horiz-adv-x="505" d="M96 1796l92 94l224 -227l-95 -90z" />
<glyph unicode="a" d="M0 0l621 1520l614 -1520h-168l-143 375h-613l-145 -375h-166zM365 510h507l-251 653z" />
<glyph unicode="b" horiz-adv-x="1232" d="M209 0v1489h156h297q155 0 262.5 -105.5t107.5 -257.5q0 -86 -38 -161t-105 -125q112 -55 180 -160.5t68 -233.5q0 -187 -132 -316.5t-321 -129.5h-373h-102zM365 141h313q129 0 219 90.5t90 219.5q0 126 -90 215.5t-219 89.5h-313v-615zM365 893h290q96 0 163 66t67 161 q0 96 -67 162t-163 66h-290v-455z" />
<glyph unicode="c" horiz-adv-x="1458" d="M104 745q0 159 60 302t162 246t244 164t300 61q286 0 535 -197l-94 -115q-100 80 -214.5 123t-226.5 43q-167 0 -307 -83.5t-220.5 -228t-80.5 -315.5q0 -172 80.5 -315.5t221 -226t308.5 -82.5q238 0 439 162l94 -113q-125 -102 -255 -149.5t-282 -47.5 q-157 0 -298.5 60.5t-243.5 163.5t-162 246t-60 302z" />
<glyph unicode="d" horiz-adv-x="1482" d="M209 0v1489h158h311q201 0 362 -100t249.5 -269.5t88.5 -374.5q0 -153 -52 -290t-143.5 -237.5t-222.5 -159t-282 -58.5h-418h-51zM367 143h282q165 0 297 82.5t203.5 219.5t71.5 300q0 111 -37.5 216.5t-106.5 192t-180.5 139.5t-247.5 53h-282v-1203z" />
<glyph unicode="e" horiz-adv-x="1187" d="M209 0v1489h158h696v-141h-696v-506h606v-144h-606v-555h696v-143h-797h-57z" />
<glyph unicode="f" horiz-adv-x="1153" d="M209 0v1489h158h659v-141h-659v-506h555v-144h-555v-698h-158z" />
<glyph unicode="g" horiz-adv-x="1654" d="M115 748q0 157 60 299t163 245.5t248.5 164.5t308.5 61q165 0 313.5 -60t257.5 -164l-92 -114q-92 85 -215.5 138.5t-261.5 53.5q-175 0 -318 -83.5t-224 -227t-81 -316.5q0 -167 83.5 -311t225.5 -228.5t306 -84.5q133 0 262 53t215 145v377h-424v140h565v-584 q-114 -133 -277 -206t-345 -73q-210 0 -387.5 104t-280 282t-102.5 389z" />
<glyph unicode="h" horiz-adv-x="1437" d="M209 0v1489h158v-647h704v647h158v-1489h-158v698h-704v-698h-158z" />
<glyph unicode="i" horiz-adv-x="483" d="M164 0v1489h158v-1489h-158z" />
<glyph unicode="j" horiz-adv-x="630" d="M41 -195q130 112 177.5 206t47.5 237v1241h156v-1229q0 -199 -59 -321t-222 -258z" />
<glyph unicode="k" horiz-adv-x="1275" d="M209 0v1489h160v-1489h-160zM387 725l649 764h193l-639 -744q83 -45 198 -213q10 -15 41 -61t43.5 -64t41 -58t44 -58.5t41.5 -48.5t45 -44.5t42.5 -31t45.5 -23t44 -6.5q44 0 69 8v-143q-34 -10 -82 -10q-44 0 -86 13t-76.5 32t-72 53.5t-64 64t-62 78t-56.5 80.5 t-56.5 87t-54.5 83q-69 106 -128 162t-120 80z" />
<glyph unicode="l" horiz-adv-x="1159" d="M209 0v1489h158v-1346h729v-143h-887z" />
<glyph unicode="m" horiz-adv-x="1787" d="M209 0v1520l686 -809l684 809v-1520h-156v1118l-528 -629l-530 629v-1118h-156z" />
<glyph unicode="n" horiz-adv-x="1511" d="M209 0v1520l940 -1127v1096h154v-1520l-938 1137v-1106h-156z" />
<glyph unicode="o" horiz-adv-x="1753" d="M104 748q0 156 61 298.5t164.5 246t246.5 164.5t301 61q210 0 388 -103.5t281 -280.5t103 -386q0 -158 -61 -301.5t-164 -247t-246 -165t-301 -61.5t-301 61.5t-246.5 165t-164.5 247t-61 301.5zM262 748q0 -170 81.5 -314t223 -228.5t310.5 -84.5q168 0 309 84t222 228 t81 315q0 126 -47.5 241.5t-129 199.5t-195.5 133.5t-240 49.5q-169 0 -310.5 -84t-223 -227.5t-81.5 -312.5z" />
<glyph unicode="p" horiz-adv-x="1222" d="M209 0v1489h160h321q188 0 318.5 -130t130.5 -315q0 -186 -130 -316t-319 -130h-321v-598h-160zM369 739h313q133 0 217 89t84 216q0 130 -84 217t-217 87h-313v-609z" />
<glyph unicode="q" horiz-adv-x="1748" d="M104 748q0 156 61 298.5t164.5 246t246.5 164.5t301 61q210 0 388 -103.5t281 -280.5t103 -386q0 -251 -144.5 -452t-374.5 -280q20 -12 77.5 -47.5t85.5 -50t77 -36.5t95 -31t96 -9q128 0 202 74l84 -106q-111 -111 -286 -111h-7q-86 0 -164 23q-80 24 -143.5 60.5 t-123.5 74.5t-132.5 71t-146.5 45q-152 7 -289 70.5t-236 166.5t-157 243.5t-58 294.5zM262 748q0 -170 81.5 -314t223 -228.5t310.5 -84.5q168 0 309 84t222 228t81 315q0 126 -47.5 241.5t-129 199.5t-195.5 133.5t-240 49.5q-169 0 -310.5 -84t-223 -227.5t-81.5 -312.5z " />
<glyph unicode="r" horiz-adv-x="1247" d="M209 0v1489h153h314q118 0 210 -33.5t147.5 -91.5t83.5 -131.5t28 -159.5q0 -193 -124 -304t-325 -114h-2q47 -25 90 -88.5t76.5 -134t69 -138t82 -111.5t100.5 -44q37 0 70 8v-145q-34 -10 -84 -10q-64 0 -118.5 28t-92.5 73.5t-74 103.5t-63 118.5t-60 118.5 t-65.5 103.5t-77.5 73.5t-98 28h-87v-639h-153zM362 780h230q89 0 159 14t127 46t88 91t31 142q0 125 -79.5 200t-239.5 75h-316v-568z" />
<glyph unicode="s" horiz-adv-x="1056" d="M59 145l84 119q180 -143 367 -143q134 0 224.5 78.5t90.5 193.5q0 72 -38.5 127.5t-99.5 92t-135 69.5t-148 71t-135 84t-99.5 120.5t-38.5 170.5q0 171 123 280.5t317 109.5q95 0 192 -30t171 -83l-72 -117q-142 88 -287 88q-124 0 -206 -69t-82 -170q0 -71 38.5 -126.5 t100.5 -92.5t136.5 -70.5t149 -72t136.5 -85.5t100.5 -122t38.5 -171q0 -187 -130.5 -305.5t-342.5 -118.5q-248 0 -455 172z" />
<glyph unicode="t" horiz-adv-x="1110" d="M33 1346v143h1046v-143h-444v-1346h-158v1346h-444z" />
<glyph unicode="u" horiz-adv-x="1335" d="M188 426v1063h158v-1047q0 -131 93 -221t229 -90t228.5 90t92.5 221v1047h158v-1063q0 -196 -136 -324.5t-343 -128.5t-343.5 128.5t-136.5 324.5z" />
<glyph unicode="v" horiz-adv-x="1269" d="M0 1489h170l463 -1141l475 1141h162l-639 -1520z" />
<glyph unicode="w" horiz-adv-x="1839" d="M0 1489h162l391 -1118l367 827l366 -827l389 1118h164l-534 -1520l-385 899l-385 -899z" />
<glyph unicode="x" horiz-adv-x="1083" d="M20 0l429 805l-392 684h176l308 -547l309 547h174l-389 -684l428 -805h-174l-350 670l-346 -670h-173z" />
<glyph unicode="y" horiz-adv-x="1044" d="M0 1489h180l340 -725l344 725h180l-446 -903v-586h-158v592z" />
<glyph unicode="z" horiz-adv-x="1101" d="M61 0l717 1346h-626v143h866l-717 -1346h735v-143h-975z" />
<glyph unicode="{" horiz-adv-x="817" d="M82 670v118q96 0 142 51t46 154v400q0 72 17.5 124t59 92.5t115 61t179.5 19.5v-144q-126 -3 -171.5 -38t-45.5 -115v-394q0 -182 -117 -268q119 -80 119 -272v-393q0 -79 45 -115t170 -39v-143q-106 -1 -179 19.5t-113.5 61.5t-57.5 93.5t-17 124.5v397q0 205 -192 205z " />
<glyph unicode="|" horiz-adv-x="477" d="M164 -246v1979h151v-1979h-151z" />
<glyph unicode="}" horiz-adv-x="817" d="M176 -88q125 3 169 38.5t44 115.5v393q0 193 121 272q-119 85 -119 268v394q0 80 -44.5 115t-170.5 38v144q106 1 179.5 -19.5t115 -61t59 -92.5t17.5 -124v-400q0 -103 46 -154t142 -51v-118q-192 0 -192 -205v-397q0 -72 -17 -124.5t-57.5 -93.5t-113.5 -61.5 t-179 -19.5v143z" />
<glyph unicode="~" horiz-adv-x="1210" d="M158 645q-3 100 64.5 170t178.5 70q62 0 120 -22t95 -48t86.5 -48t96.5 -22q66 0 102.5 34t34.5 87h117q5 -98 -65 -168.5t-181 -70.5q-63 0 -120.5 22.5t-94 49t-85.5 49t-97 22.5q-61 0 -100 -34t-38 -91h-114z" />
<glyph unicode="&#xa1;" horiz-adv-x="673" d="M233 1384q0 46 32.5 79.5t76.5 33.5t76.5 -33.5t32.5 -79.5q0 -49 -32 -81.5t-77 -32.5t-77 32.5t-32 81.5zM258 -25l14 1151h140l14 -1151h-168z" />
<glyph unicode="&#xa2;" horiz-adv-x="1079" d="M53 545q0 215 141.5 377.5t350.5 193.5v182h137v-178q197 -18 342 -157l-92 -101q-131 121 -305 121q-179 0 -305.5 -128.5t-126.5 -309.5q0 -180 127 -308t305 -128q174 0 303 120l94 -102q-144 -138 -342 -156v-159h-137v163q-209 31 -350.5 193t-141.5 377z" />
<glyph unicode="&#xa3;" horiz-adv-x="1150" d="M96 705v108h160q-27 150 -27 229q0 215 132.5 342t336.5 127q106 0 203 -40t168 -117l-90 -99q-112 121 -277 121q-143 0 -235 -88.5t-92 -247.5q0 -87 28 -227h379v-108h-360q27 -158 27 -248q0 -157 -56 -269q57 13 105 13q83 0 223 -35t201 -35q85 0 147 29l59 -135 q-84 -37 -200 -37q-72 0 -221 34.5t-232 34.5q-79 0 -152 -22.5t-122 -57.5l-80 113q91 66 137.5 151.5t46.5 215.5q0 78 -29 248h-180z" />
<glyph unicode="&#xa4;" horiz-adv-x="1083" d="M182 485l99 101q-60 86 -60 186q0 103 60 186l-99 103l74 74l98 -101q86 60 189 60q107 0 186 -60l100 101l74 -74l-100 -103q59 -83 59 -186q0 -101 -59 -186l100 -101l-74 -73l-100 100q-85 -59 -186 -59q-104 0 -189 59l-98 -100zM328 772q0 -89 63 -152t152 -63 t151 63t62 152q0 91 -62 154t-151 63t-152 -63t-63 -154z" />
<glyph unicode="&#xa5;" horiz-adv-x="1034" d="M18 1493h177l321 -662l328 662h172l-365 -700h217v-111h-272v-102h272v-111h-272v-469h-160v469h-274v111h274v100l-2 2h-272v111h215z" />
<glyph unicode="&#xa6;" horiz-adv-x="477" d="M164 -246v772h151v-772h-151zM164 961v772h151v-772h-151z" />
<glyph unicode="&#xa7;" horiz-adv-x="1118" d="M74 141l102 84q133 -157 289 -157q120 0 197 74t77 169q0 62 -34 109.5t-87.5 79t-119 60.5t-131 62.5t-119 75.5t-87.5 109.5t-34 155.5q0 89 44 167.5t130 129.5q18 125 115 210.5t241 85.5q186 0 338 -165l-96 -91q-116 123 -240 123q-102 0 -164.5 -62t-62.5 -149 q0 -42 15.5 -78.5t37 -60.5t57.5 -47.5t64 -37.5t70 -33q11 -5 16 -7q47 -21 72.5 -33t68.5 -36t67.5 -43.5t55.5 -50.5t47.5 -62t28.5 -73.5t12 -90.5q0 -194 -176 -309q-25 -131 -135 -223.5t-270 -92.5q-102 0 -203 51.5t-186 155.5zM260 965q0 -59 28 -105t74.5 -78 t103.5 -59t118.5 -55.5t115.5 -60.5t97.5 -80.5t62.5 -108.5q51 57 51 141q0 27 -5 50t-17 43.5t-23.5 36t-34.5 32.5t-38 27.5t-46 26t-47.5 23t-52.5 23.5q-37 16 -50 22t-51.5 25.5t-57.5 32.5t-51.5 37t-51.5 46t-39 53t-31 65q-55 -58 -55 -137z" />
<glyph unicode="&#xa8;" horiz-adv-x="710" d="M90 1706q0 49 32.5 82t80.5 33q47 0 79.5 -33t32.5 -82q0 -46 -32.5 -79.5t-79.5 -33.5t-80 33.5t-33 79.5zM418 1706q0 49 33 82t81 33q46 0 79.5 -33t33.5 -82q0 -46 -33.5 -79.5t-79.5 -33.5q-47 0 -80.5 33.5t-33.5 79.5z" />
<glyph unicode="&#xa9;" horiz-adv-x="1730" d="M94 748q0 209 103.5 386t282 280.5t388.5 103.5q208 0 385 -103.5t280 -280.5t103 -386q0 -158 -61 -301.5t-163.5 -247t-245 -165t-298.5 -61.5q-158 0 -301 61.5t-247 165t-165 247t-61 301.5zM180 748q0 -141 54 -268.5t146 -220t219.5 -146.5t268.5 -54 q139 0 265.5 54t218 146t146 220t54.5 269q0 139 -54 266t-145.5 219t-218 146.5t-266.5 54.5q-188 0 -346.5 -92t-250 -249.5t-91.5 -344.5zM436 748q0 182 128.5 310t312.5 128q100 0 189 -44t151 -120l-99 -80q-42 55 -105.5 87t-133.5 32q-130 0 -222 -93t-92 -220 q0 -130 92 -223t222 -93q70 0 133.5 31t105.5 84l96 -80q-60 -74 -149 -118t-188 -44q-185 0 -313 128.5t-128 314.5z" />
<glyph unicode="&#xaa;" horiz-adv-x="641" d="M78 1270q0 102 69 172.5t170 70.5q96 0 164 -71v65h82v-473h-82v64q-69 -72 -164 -72q-100 0 -169.5 71.5t-69.5 172.5zM162 1270q0 -66 47 -113t113 -47t112.5 47.5t46.5 112.5q0 66 -47 113t-112 47q-66 0 -113 -47t-47 -113z" />
<glyph unicode="&#xab;" horiz-adv-x="950" d="M96 774l281 318h141l-280 -318l280 -315h-141zM412 774l280 318h139l-280 -318l280 -315h-139z" />
<glyph unicode="&#xac;" horiz-adv-x="929" d="M111 707v143h708v-381l-141 2v236h-567z" />
<glyph unicode="&#xad;" horiz-adv-x="833" d="M121 698v144h592v-144h-592z" />
<glyph unicode="&#xae;" horiz-adv-x="739" d="M106 1233q0 107 79 185.5t186 78.5q110 0 188 -78t78 -186q0 -110 -78 -188t-188 -78q-108 0 -186.5 78t-78.5 188zM145 1233q0 -95 65.5 -161t160.5 -66t162 66t67 161t-67 161t-162 66t-160.5 -66t-65.5 -161zM266 1090v299h58h79q37 0 65 -26.5t28 -64.5 q0 -31 -17.5 -54t-44.5 -32l62 -122h-66l-57 116h-49v-116h-58zM324 1260h77q21 0 31 12.5t10 25.5q0 16 -12.5 26.5t-28.5 10.5h-77v-75z" />
<glyph unicode="&#xaf;" horiz-adv-x="772" d="M98 1667v123h576v-123h-576z" />
<glyph unicode="&#xb0;" horiz-adv-x="643" d="M78 1270q0 100 71.5 171.5t172.5 71.5q100 0 171.5 -71t71.5 -172q0 -100 -71.5 -172t-171.5 -72q-101 0 -172.5 72t-71.5 172zM162 1270q0 -66 47 -113t113 -47t112.5 47t46.5 113t-46.5 113t-112.5 47t-113 -47t-47 -113z" />
<glyph unicode="&#xb1;" horiz-adv-x="886" d="M113 365v118h264v224h-264v137h264v266h137v-266h266v-137h-266v-224h264v-118h-665z" />
<glyph unicode="&#xb4;" horiz-adv-x="505" d="M98 1659l221 227l95 -94l-224 -223z" />
<glyph unicode="&#xb6;" horiz-adv-x="1079" d="M68 1182q0 128 83 217.5t224 89.5h637v-141h-90v-1348h-156v1348h-145v-1348h-158v872h-88q-140 0 -223.5 90t-83.5 220z" />
<glyph unicode="&#xb7;" horiz-adv-x="430" d="M106 721q0 44 32 75t77 31t77 -31t32 -75t-32.5 -76.5t-76.5 -32.5t-76.5 32.5t-32.5 76.5z" />
<glyph unicode="&#xb8;" horiz-adv-x="569" d="M96 -395q62 -19 105 -19q66 0 108.5 34t42.5 87q0 90 -127 90h-67l12 107h72q107 0 169 -52.5t62 -144.5q0 -100 -74 -165.5t-186 -65.5q-61 0 -117 20v109z" />
<glyph unicode="&#xba;" horiz-adv-x="643" d="M78 1270q0 100 71.5 171.5t172.5 71.5q100 0 171.5 -71t71.5 -172q0 -100 -71.5 -172t-171.5 -72q-101 0 -172.5 72t-71.5 172zM162 1270q0 -66 47 -113t113 -47t112.5 47t46.5 113t-46.5 113t-112.5 47t-113 -47t-47 -113z" />
<glyph unicode="&#xbb;" horiz-adv-x="950" d="M100 459l281 315l-281 318h142l280 -318l-280 -315h-142zM416 459l280 315l-280 318h139l281 -318l-281 -315h-139z" />
<glyph unicode="&#xbf;" horiz-adv-x="1073" d="M139 354q0 82 25 155t63 122.5t82 98.5t82 86.5t63 82.5t25 90v131h144v-135q0 -57 -19 -108.5t-48.5 -91.5t-66 -77.5t-73 -75.5t-66 -78t-48.5 -91.5t-19 -108.5q0 -99 67.5 -169t177.5 -70q97 0 174.5 60t98.5 169l135 -31q-29 -155 -145.5 -247.5t-266.5 -92.5 q-166 0 -275.5 112t-109.5 269zM446 1407q0 41 31 71.5t74 30.5t73.5 -30.5t30.5 -71.5q0 -44 -30.5 -75.5t-73.5 -31.5t-74 31.5t-31 75.5z" />
<glyph unicode="&#xc0;" d="M0 0l621 1520l614 -1520h-168l-143 375h-613l-145 -375h-166zM365 510h507l-251 653zM463 1837l92 94l223 -227l-94 -90z" />
<glyph unicode="&#xc1;" d="M0 0l621 1520l614 -1520h-168l-143 375h-613l-145 -375h-166zM365 510h507l-251 653zM465 1700l221 227l94 -94l-223 -223z" />
<glyph unicode="&#xc2;" d="M0 0l621 1520l614 -1520h-168l-143 375h-613l-145 -375h-166zM365 510h507l-251 653zM369 1692l252 229l251 -229l-81 -86l-170 157l-172 -157z" />
<glyph unicode="&#xc3;" d="M0 0l621 1520l614 -1520h-168l-143 375h-613l-145 -375h-166zM291 1657q0 94 51 157.5t135 63.5q48 0 92 -21t71 -46t61.5 -46t66.5 -20q39 0 58.5 32t19.5 78h108q0 -93 -51 -157.5t-135 -65.5q-48 0 -92.5 21t-71.5 45.5t-61.5 45.5t-65.5 21q-36 1 -57 -30t-21 -78 h-108zM365 510h507l-251 653z" />
<glyph unicode="&#xc4;" d="M0 0l621 1520l614 -1520h-168l-143 375h-613l-145 -375h-166zM344 1747q0 49 32.5 82t80.5 33q47 0 79.5 -33t32.5 -82q0 -46 -32.5 -79.5t-79.5 -33.5t-80 33.5t-33 79.5zM365 510h507l-251 653zM672 1747q0 49 32.5 82t79.5 33q48 0 80.5 -33t32.5 -82q0 -46 -33 -79.5 t-80 -33.5t-79.5 33.5t-32.5 79.5z" />
<glyph unicode="&#xc5;" d="M0 0l621 1520l614 -1520h-168l-143 375h-613l-145 -375h-166zM365 510h507l-251 653zM444 1757q0 73 52.5 124.5t124.5 51.5q73 0 124.5 -51.5t51.5 -124.5q0 -72 -51.5 -124t-124.5 -52q-72 0 -124.5 52t-52.5 124zM532 1757q0 -36 26.5 -62t62.5 -26q37 0 62.5 25.5 t25.5 62.5t-25.5 62.5t-62.5 25.5q-36 0 -62.5 -26t-26.5 -62z" />
<glyph unicode="&#xc6;" horiz-adv-x="1839" d="M-18 0l968 1489h803v-143h-674v-504h602v-144h-602v-555h674v-143h-831v406h-494l-264 -406h-182zM502 543h420v651z" />
<glyph unicode="&#xc7;" horiz-adv-x="1458" d="M104 745q0 159 60 302t162 246t244 164t300 61q286 0 535 -197l-94 -115q-100 80 -214.5 123t-226.5 43q-167 0 -307 -83.5t-220.5 -228t-80.5 -315.5q0 -172 80.5 -315.5t221 -226t308.5 -82.5q238 0 439 162l94 -113q-125 -102 -255 -149.5t-282 -47.5 q-157 0 -298.5 60.5t-243.5 163.5t-162 246t-60 302zM688 -403q62 -19 105 -19q66 0 108.5 34t42.5 87q0 90 -127 90h-67l12 107h72q107 0 169 -52.5t62 -144.5q0 -100 -74 -165.5t-186 -65.5q-61 0 -117 20v109z" />
<glyph unicode="&#xc8;" horiz-adv-x="1187" d="M209 0v1489h158h696v-141h-696v-506h606v-144h-606v-555h696v-143h-797h-57zM502 1841l92 94l223 -227l-94 -90z" />
<glyph unicode="&#xc9;" horiz-adv-x="1187" d="M209 0v1489h158h696v-141h-696v-506h606v-144h-606v-555h696v-143h-797h-57zM504 1704l221 227l94 -94l-223 -223z" />
<glyph unicode="&#xca;" horiz-adv-x="1187" d="M209 0v1489h158h696v-141h-696v-506h606v-144h-606v-555h696v-143h-797h-57zM408 1696l251 229l252 -229l-82 -86l-170 157l-172 -157z" />
<glyph unicode="&#xcb;" horiz-adv-x="1187" d="M209 0v1489h158h696v-141h-696v-506h606v-144h-606v-555h696v-143h-797h-57zM383 1751q0 49 32.5 82t80.5 33q47 0 79.5 -33t32.5 -82q0 -46 -32.5 -79.5t-79.5 -33.5t-80 33.5t-33 79.5zM711 1751q0 49 32.5 82t79.5 33q48 0 80.5 -33t32.5 -82q0 -46 -33 -79.5 t-80 -33.5t-79.5 33.5t-32.5 79.5z" />
<glyph unicode="&#xcc;" horiz-adv-x="483" d="M84 1837l92 94l223 -227l-94 -90zM164 0v1489h158v-1489h-158z" />
<glyph unicode="&#xcd;" horiz-adv-x="483" d="M86 1700l221 227l94 -94l-223 -223zM164 0v1489h158v-1489h-158z" />
<glyph unicode="&#xce;" horiz-adv-x="483" d="M-10 1692l252 229l252 -229l-82 -86l-170 157l-172 -157zM164 0v1489h158v-1489h-158z" />
<glyph unicode="&#xcf;" horiz-adv-x="483" d="M-37 1747q0 49 32.5 82t80.5 33q47 0 79.5 -33t32.5 -82q0 -46 -32.5 -79.5t-79.5 -33.5t-80 33.5t-33 79.5zM164 0v1489h158v-1489h-158zM291 1747q0 49 32.5 82t79.5 33q48 0 80.5 -33t32.5 -82q0 -46 -33 -79.5t-80 -33.5t-79.5 33.5t-32.5 79.5z" />
<glyph unicode="&#xd0;" horiz-adv-x="1579" d="M96 705v139h209v645h158h311q151 0 282 -58.5t222.5 -158.5t144 -237t52.5 -290t-52.5 -290t-144 -237.5t-222.5 -159t-282 -58.5h-418h-51v705h-209zM463 143h282q165 0 297 82.5t203.5 219.5t71.5 300q0 111 -37.5 216.5t-106.5 192t-180.5 139.5t-247.5 53h-282v-502 h377v-139h-377v-562z" />
<glyph unicode="&#xd1;" horiz-adv-x="1511" d="M209 0v1520l940 -1127v1096h154v-1520l-938 1137v-1106h-156zM428 1657q0 94 51 157.5t135 63.5q48 0 92 -21t71 -46t61.5 -46t66.5 -20q39 0 58.5 32t19.5 78h109q0 -93 -51.5 -157.5t-135.5 -65.5q-48 0 -92.5 21t-71.5 45.5t-61.5 45.5t-65.5 21q-36 1 -56.5 -29.5 t-20.5 -78.5h-109z" />
<glyph unicode="&#xd2;" horiz-adv-x="1753" d="M104 748q0 156 61 298.5t164.5 246t246.5 164.5t301 61q210 0 388 -103.5t281 -280.5t103 -386q0 -158 -61 -301.5t-164 -247t-246 -165t-301 -61.5t-301 61.5t-246.5 165t-164.5 247t-61 301.5zM262 748q0 -170 81.5 -314t223 -228.5t310.5 -84.5q168 0 309 84t222 228 t81 315q0 126 -47.5 241.5t-129 199.5t-195.5 133.5t-240 49.5q-169 0 -310.5 -84t-223 -227.5t-81.5 -312.5zM733 1843l92 94l224 -227l-95 -90z" />
<glyph unicode="&#xd3;" horiz-adv-x="1753" d="M104 748q0 156 61 298.5t164.5 246t246.5 164.5t301 61q210 0 388 -103.5t281 -280.5t103 -386q0 -158 -61 -301.5t-164 -247t-246 -165t-301 -61.5t-301 61.5t-246.5 165t-164.5 247t-61 301.5zM262 748q0 -170 81.5 -314t223 -228.5t310.5 -84.5q168 0 309 84t222 228 t81 315q0 126 -47.5 241.5t-129 199.5t-195.5 133.5t-240 49.5q-169 0 -310.5 -84t-223 -227.5t-81.5 -312.5zM735 1706l221 227l95 -94l-224 -223z" />
<glyph unicode="&#xd4;" horiz-adv-x="1753" d="M104 748q0 156 61 298.5t164.5 246t246.5 164.5t301 61q210 0 388 -103.5t281 -280.5t103 -386q0 -158 -61 -301.5t-164 -247t-246 -165t-301 -61.5t-301 61.5t-246.5 165t-164.5 247t-61 301.5zM262 748q0 -170 81.5 -314t223 -228.5t310.5 -84.5q168 0 309 84t222 228 t81 315q0 126 -47.5 241.5t-129 199.5t-195.5 133.5t-240 49.5q-169 0 -310.5 -84t-223 -227.5t-81.5 -312.5zM639 1698l252 229l252 -229l-82 -86l-170 157l-172 -157z" />
<glyph unicode="&#xd5;" horiz-adv-x="1753" d="M104 748q0 156 61 298.5t164.5 246t246.5 164.5t301 61q210 0 388 -103.5t281 -280.5t103 -386q0 -158 -61 -301.5t-164 -247t-246 -165t-301 -61.5t-301 61.5t-246.5 165t-164.5 247t-61 301.5zM262 748q0 -170 81.5 -314t223 -228.5t310.5 -84.5q168 0 309 84t222 228 t81 315q0 126 -47.5 241.5t-129 199.5t-195.5 133.5t-240 49.5q-169 0 -310.5 -84t-223 -227.5t-81.5 -312.5zM559 1663q0 94 51 157.5t135 63.5q48 0 92 -21t71 -46t61.5 -46t66.5 -20q39 0 58.5 32.5t19.5 78.5h109q0 -93 -51.5 -158t-135.5 -66q-48 0 -92.5 21t-71.5 46 t-61.5 46t-65.5 21q-36 1 -56.5 -30t-20.5 -79h-109z" />
<glyph unicode="&#xd6;" horiz-adv-x="1753" d="M104 748q0 156 61 298.5t164.5 246t246.5 164.5t301 61q210 0 388 -103.5t281 -280.5t103 -386q0 -158 -61 -301.5t-164 -247t-246 -165t-301 -61.5t-301 61.5t-246.5 165t-164.5 247t-61 301.5zM262 748q0 -170 81.5 -314t223 -228.5t310.5 -84.5q168 0 309 84t222 228 t81 315q0 126 -47.5 241.5t-129 199.5t-195.5 133.5t-240 49.5q-169 0 -310.5 -84t-223 -227.5t-81.5 -312.5zM614 1753q0 49 32.5 82t80.5 33t80.5 -33t32.5 -82q0 -46 -33 -79.5t-80 -33.5t-80 33.5t-33 79.5zM942 1753q0 49 32.5 82t80.5 33q47 0 79.5 -33t32.5 -82 q0 -46 -32.5 -79.5t-79.5 -33.5t-80 33.5t-33 79.5z" />
<glyph unicode="&#xd7;" horiz-adv-x="882" d="M156 963l96 96l192 -191l189 189l96 -96l-188 -189l184 -186l-96 -97l-185 187l-188 -189l-96 97l188 188z" />
<glyph unicode="&#xd8;" horiz-adv-x="1753" d="M104 748q0 156 61 298.5t164.5 246t246.5 164.5t301 61q163 0 315 -68l78 129h145l-112 -190q159 -104 252.5 -274t93.5 -367q0 -158 -61 -301.5t-164 -247t-246 -165t-301 -61.5q-193 0 -365 90l-94 -155h-146l134 225q-140 108 -221 269t-81 346zM262 748 q0 -144 59 -270t162 -214l633 1059q-117 49 -239 49q-169 0 -310.5 -84t-223 -227.5t-81.5 -312.5zM588 193q132 -72 289 -72q168 0 309 84t222 228t81 315q0 156 -70.5 292t-191.5 222z" />
<glyph unicode="&#xd9;" horiz-adv-x="1335" d="M188 426v1063h158v-1047q0 -131 93 -221t229 -90t228.5 90t92.5 221v1047h158v-1063q0 -196 -136 -324.5t-343 -128.5t-343.5 128.5t-136.5 324.5zM510 1837l92 94l223 -227l-94 -90z" />
<glyph unicode="&#xda;" horiz-adv-x="1335" d="M188 426v1063h158v-1047q0 -131 93 -221t229 -90t228.5 90t92.5 221v1047h158v-1063q0 -196 -136 -324.5t-343 -128.5t-343.5 128.5t-136.5 324.5zM512 1700l221 227l94 -94l-223 -223z" />
<glyph unicode="&#xdb;" horiz-adv-x="1335" d="M188 426v1063h158v-1047q0 -131 93 -221t229 -90t228.5 90t92.5 221v1047h158v-1063q0 -196 -136 -324.5t-343 -128.5t-343.5 128.5t-136.5 324.5zM416 1692l252 229l252 -229l-82 -86l-170 157l-172 -157z" />
<glyph unicode="&#xdc;" horiz-adv-x="1335" d="M188 426v1063h158v-1047q0 -131 93 -221t229 -90t228.5 90t92.5 221v1047h158v-1063q0 -196 -136 -324.5t-343 -128.5t-343.5 128.5t-136.5 324.5zM391 1747q0 49 32.5 82t80.5 33q47 0 79.5 -33t32.5 -82q0 -46 -32.5 -79.5t-79.5 -33.5t-80 33.5t-33 79.5zM719 1747 q0 49 32.5 82t79.5 33q48 0 80.5 -33t32.5 -82q0 -46 -33 -79.5t-80 -33.5t-79.5 33.5t-32.5 79.5z" />
<glyph unicode="&#xdd;" horiz-adv-x="1028" d="M0 1489h178l344 -735l332 735h174l-696 -1489h-172l278 582zM371 1700l221 227l94 -94l-223 -223z" />
<glyph unicode="&#xde;" horiz-adv-x="1224" d="M209 0v1489h160v-291h321q189 0 320 -128.5t131 -313.5q0 -121 -59.5 -223.5t-163.5 -162t-228 -59.5h-321v-311h-160zM369 455h311q134 0 217.5 88t83.5 213q0 128 -84 213.5t-217 85.5h-311v-600z" />
<glyph unicode="&#xdf;" horiz-adv-x="1282" d="M209 0v969q0 111 25 203.5t67 155.5t99 106.5t119 63.5t128 20q158 0 267.5 -98t109.5 -230q0 -53 -21.5 -104.5t-53 -91t-62.5 -74t-52.5 -66t-21.5 -55.5q0 -28 36.5 -60t88.5 -67t104 -79t88.5 -112.5t36.5 -150.5q0 -114 -59.5 -197t-148.5 -121.5t-191 -38.5 q-167 0 -264 97l71 120q79 -69 191 -69q101 0 171.5 57.5t70.5 161.5q0 54 -25.5 101.5t-64 80.5t-83.5 67.5t-83.5 62.5t-64 65t-25.5 76q0 37 21 75t51 71.5t60 69t51 80.5t21 93q0 86 -70.5 137t-152.5 51q-53 0 -100.5 -23t-88 -70t-64 -129t-23.5 -190v-958h-158z" />
<glyph unicode="&#xe0;" d="M0 0l621 1520l614 -1520h-168l-143 375h-613l-145 -375h-166zM365 510h507l-251 653zM463 1837l92 94l223 -227l-94 -90z" />
<glyph unicode="&#xe1;" d="M0 0l621 1520l614 -1520h-168l-143 375h-613l-145 -375h-166zM365 510h507l-251 653zM465 1700l221 227l94 -94l-223 -223z" />
<glyph unicode="&#xe2;" d="M0 0l621 1520l614 -1520h-168l-143 375h-613l-145 -375h-166zM365 510h507l-251 653zM369 1692l252 229l251 -229l-81 -86l-170 157l-172 -157z" />
<glyph unicode="&#xe3;" d="M0 0l621 1520l614 -1520h-168l-143 375h-613l-145 -375h-166zM291 1657q0 94 51 157.5t135 63.5q48 0 92 -21t71 -46t61.5 -46t66.5 -20q39 0 58.5 32t19.5 78h108q0 -93 -51 -157.5t-135 -65.5q-48 0 -92.5 21t-71.5 45.5t-61.5 45.5t-65.5 21q-36 1 -57 -30t-21 -78 h-108zM365 510h507l-251 653z" />
<glyph unicode="&#xe4;" d="M0 0l621 1520l614 -1520h-168l-143 375h-613l-145 -375h-166zM344 1747q0 49 32.5 82t80.5 33q47 0 79.5 -33t32.5 -82q0 -46 -32.5 -79.5t-79.5 -33.5t-80 33.5t-33 79.5zM365 510h507l-251 653zM672 1747q0 49 32.5 82t79.5 33q48 0 80.5 -33t32.5 -82q0 -46 -33 -79.5 t-80 -33.5t-79.5 33.5t-32.5 79.5z" />
<glyph unicode="&#xe5;" d="M0 0l621 1520l614 -1520h-168l-143 375h-613l-145 -375h-166zM365 510h507l-251 653zM444 1757q0 73 52.5 124.5t124.5 51.5q73 0 124.5 -51.5t51.5 -124.5q0 -72 -51.5 -124t-124.5 -52q-72 0 -124.5 52t-52.5 124zM532 1757q0 -36 26.5 -62t62.5 -26q37 0 62.5 25.5 t25.5 62.5t-25.5 62.5t-62.5 25.5q-36 0 -62.5 -26t-26.5 -62z" />
<glyph unicode="&#xe6;" horiz-adv-x="1839" d="M-18 0l968 1489h803v-143h-674v-504h602v-144h-602v-555h674v-143h-831v406h-494l-264 -406h-182zM502 543h420v651z" />
<glyph unicode="&#xe7;" horiz-adv-x="1458" d="M104 745q0 159 60 302t162 246t244 164t300 61q286 0 535 -197l-94 -115q-100 80 -214.5 123t-226.5 43q-167 0 -307 -83.5t-220.5 -228t-80.5 -315.5q0 -172 80.5 -315.5t221 -226t308.5 -82.5q238 0 439 162l94 -113q-125 -102 -255 -149.5t-282 -47.5 q-157 0 -298.5 60.5t-243.5 163.5t-162 246t-60 302zM645 -395q62 -19 105 -19q66 0 108.5 34t42.5 87q0 90 -127 90h-67l12 107h72q107 0 169 -52.5t62 -144.5q0 -100 -74 -165.5t-186 -65.5q-61 0 -117 20v109z" />
<glyph unicode="&#xe8;" horiz-adv-x="1187" d="M209 0v1489h158h696v-141h-696v-506h606v-144h-606v-555h696v-143h-797h-57zM494 1841l92 94l223 -227l-94 -90z" />
<glyph unicode="&#xe9;" horiz-adv-x="1187" d="M209 0v1489h158h696v-141h-696v-506h606v-144h-606v-555h696v-143h-797h-57zM496 1704l221 227l94 -94l-223 -223z" />
<glyph unicode="&#xea;" horiz-adv-x="1187" d="M209 0v1489h158h696v-141h-696v-506h606v-144h-606v-555h696v-143h-797h-57zM399 1696l252 229l252 -229l-82 -86l-170 157l-172 -157z" />
<glyph unicode="&#xeb;" horiz-adv-x="1187" d="M209 0v1489h158h696v-141h-696v-506h606v-144h-606v-555h696v-143h-797h-57zM375 1751q0 49 32.5 82t79.5 33q48 0 80.5 -33t32.5 -82q0 -46 -33 -79.5t-80 -33.5t-79.5 33.5t-32.5 79.5zM702 1751q0 49 32.5 82t80.5 33t80.5 -33t32.5 -82q0 -46 -33 -79.5t-80 -33.5 t-80 33.5t-33 79.5z" />
<glyph unicode="&#xec;" horiz-adv-x="483" d="M84 1837l92 94l223 -227l-94 -90zM164 0v1489h158v-1489h-158z" />
<glyph unicode="&#xed;" horiz-adv-x="483" d="M86 1700l221 227l94 -94l-223 -223zM164 0v1489h158v-1489h-158z" />
<glyph unicode="&#xee;" horiz-adv-x="483" d="M-10 1692l252 229l252 -229l-82 -86l-170 157l-172 -157zM164 0v1489h158v-1489h-158z" />
<glyph unicode="&#xef;" horiz-adv-x="483" d="M-37 1747q0 49 32.5 82t80.5 33q47 0 79.5 -33t32.5 -82q0 -46 -32.5 -79.5t-79.5 -33.5t-80 33.5t-33 79.5zM164 0v1489h158v-1489h-158zM291 1747q0 49 32.5 82t79.5 33q48 0 80.5 -33t32.5 -82q0 -46 -33 -79.5t-80 -33.5t-79.5 33.5t-32.5 79.5z" />
<glyph unicode="&#xf0;" horiz-adv-x="1579" d="M96 705v139h209v645h158h311q151 0 282 -58.5t222.5 -158.5t144 -237t52.5 -290t-52.5 -290t-144 -237.5t-222.5 -159t-282 -58.5h-418h-51v705h-209zM463 143h282q165 0 297 82.5t203.5 219.5t71.5 300q0 111 -37.5 216.5t-106.5 192t-180.5 139.5t-247.5 53h-282v-502 h377v-139h-377v-562z" />
<glyph unicode="&#xf1;" horiz-adv-x="1511" d="M209 0v1520l940 -1127v1096h154v-1520l-938 1137v-1106h-156zM430 1657q0 94 51 157.5t135 63.5q48 0 92 -21t71 -46t61.5 -46t66.5 -20q39 0 58.5 32t19.5 78h109q0 -93 -51.5 -157.5t-135.5 -65.5q-48 0 -92.5 21t-71.5 45.5t-61.5 45.5t-65.5 21q-36 1 -56.5 -29.5 t-20.5 -78.5h-109z" />
<glyph unicode="&#xf2;" horiz-adv-x="1753" d="M104 748q0 156 61 298.5t164.5 246t246.5 164.5t301 61q210 0 388 -103.5t281 -280.5t103 -386q0 -158 -61 -301.5t-164 -247t-246 -165t-301 -61.5t-301 61.5t-246.5 165t-164.5 247t-61 301.5zM262 748q0 -170 81.5 -314t223 -228.5t310.5 -84.5q168 0 309 84t222 228 t81 315q0 126 -47.5 241.5t-129 199.5t-195.5 133.5t-240 49.5q-169 0 -310.5 -84t-223 -227.5t-81.5 -312.5zM729 1837l92 94l223 -227l-94 -90z" />
<glyph unicode="&#xf3;" horiz-adv-x="1753" d="M104 748q0 156 61 298.5t164.5 246t246.5 164.5t301 61q210 0 388 -103.5t281 -280.5t103 -386q0 -158 -61 -301.5t-164 -247t-246 -165t-301 -61.5t-301 61.5t-246.5 165t-164.5 247t-61 301.5zM262 748q0 -170 81.5 -314t223 -228.5t310.5 -84.5q168 0 309 84t222 228 t81 315q0 126 -47.5 241.5t-129 199.5t-195.5 133.5t-240 49.5q-169 0 -310.5 -84t-223 -227.5t-81.5 -312.5zM731 1700l221 227l95 -94l-224 -223z" />
<glyph unicode="&#xf4;" horiz-adv-x="1753" d="M104 748q0 156 61 298.5t164.5 246t246.5 164.5t301 61q210 0 388 -103.5t281 -280.5t103 -386q0 -158 -61 -301.5t-164 -247t-246 -165t-301 -61.5t-301 61.5t-246.5 165t-164.5 247t-61 301.5zM262 748q0 -170 81.5 -314t223 -228.5t310.5 -84.5q168 0 309 84t222 228 t81 315q0 126 -47.5 241.5t-129 199.5t-195.5 133.5t-240 49.5q-169 0 -310.5 -84t-223 -227.5t-81.5 -312.5zM635 1692l252 229l252 -229l-82 -86l-170 157l-172 -157z" />
<glyph unicode="&#xf5;" horiz-adv-x="1753" d="M104 748q0 156 61 298.5t164.5 246t246.5 164.5t301 61q210 0 388 -103.5t281 -280.5t103 -386q0 -158 -61 -301.5t-164 -247t-246 -165t-301 -61.5t-301 61.5t-246.5 165t-164.5 247t-61 301.5zM262 748q0 -170 81.5 -314t223 -228.5t310.5 -84.5q168 0 309 84t222 228 t81 315q0 126 -47.5 241.5t-129 199.5t-195.5 133.5t-240 49.5q-169 0 -310.5 -84t-223 -227.5t-81.5 -312.5zM555 1657q0 94 51 157.5t135 63.5q48 0 92 -21t71 -46t61.5 -46t66.5 -20q39 0 58.5 32t19.5 78h109q0 -93 -51.5 -157.5t-135.5 -65.5q-48 0 -92.5 21 t-71.5 45.5t-61.5 45.5t-65.5 21q-36 1 -56.5 -29.5t-20.5 -78.5h-109z" />
<glyph unicode="&#xf6;" horiz-adv-x="1753" d="M104 748q0 156 61 298.5t164.5 246t246.5 164.5t301 61q210 0 388 -103.5t281 -280.5t103 -386q0 -158 -61 -301.5t-164 -247t-246 -165t-301 -61.5t-301 61.5t-246.5 165t-164.5 247t-61 301.5zM262 748q0 -170 81.5 -314t223 -228.5t310.5 -84.5q168 0 309 84t222 228 t81 315q0 126 -47.5 241.5t-129 199.5t-195.5 133.5t-240 49.5q-169 0 -310.5 -84t-223 -227.5t-81.5 -312.5zM610 1747q0 49 32.5 82t80.5 33t80.5 -33t32.5 -82q0 -46 -33 -79.5t-80 -33.5t-80 33.5t-33 79.5zM938 1747q0 49 32.5 82t80.5 33q47 0 79.5 -33t32.5 -82 q0 -46 -32.5 -79.5t-79.5 -33.5t-80 33.5t-33 79.5z" />
<glyph unicode="&#xf7;" horiz-adv-x="870" d="M100 705v137h670v-137h-670zM322 512q0 47 33.5 80t80.5 33q46 0 78.5 -33t32.5 -80q0 -46 -32.5 -79.5t-78.5 -33.5q-47 0 -80.5 33.5t-33.5 79.5zM322 1030q0 47 33.5 81t80.5 34q46 0 78.5 -34t32.5 -81q0 -46 -32.5 -78t-78.5 -32q-47 0 -80.5 32t-33.5 78z" />
<glyph unicode="&#xf8;" horiz-adv-x="1753" d="M104 748q0 156 61 298.5t164.5 246t246.5 164.5t301 61q163 0 315 -68l78 129h145l-112 -190q159 -104 252.5 -274t93.5 -367q0 -158 -61 -301.5t-164 -247t-246 -165t-301 -61.5q-193 0 -365 90l-94 -155h-146l134 225q-140 108 -221 269t-81 346zM262 748 q0 -144 59 -270t162 -214l633 1059q-117 49 -239 49q-169 0 -310.5 -84t-223 -227.5t-81.5 -312.5zM588 193q132 -72 289 -72q168 0 309 84t222 228t81 315q0 156 -70.5 292t-191.5 222z" />
<glyph unicode="&#xf9;" horiz-adv-x="1335" d="M188 426v1063h158v-1047q0 -131 93 -221t229 -90t228.5 90t92.5 221v1047h158v-1063q0 -196 -136 -324.5t-343 -128.5t-343.5 128.5t-136.5 324.5zM514 1837l92 94l223 -227l-94 -90z" />
<glyph unicode="&#xfa;" horiz-adv-x="1335" d="M188 426v1063h158v-1047q0 -131 93 -221t229 -90t228.5 90t92.5 221v1047h158v-1063q0 -196 -136 -324.5t-343 -128.5t-343.5 128.5t-136.5 324.5zM516 1700l221 227l94 -94l-223 -223z" />
<glyph unicode="&#xfb;" horiz-adv-x="1335" d="M188 426v1063h158v-1047q0 -131 93 -221t229 -90t228.5 90t92.5 221v1047h158v-1063q0 -196 -136 -324.5t-343 -128.5t-343.5 128.5t-136.5 324.5zM420 1692l252 229l252 -229l-82 -86l-170 157l-172 -157z" />
<glyph unicode="&#xfc;" horiz-adv-x="1335" d="M188 426v1063h158v-1047q0 -131 93 -221t229 -90t228.5 90t92.5 221v1047h158v-1063q0 -196 -136 -324.5t-343 -128.5t-343.5 128.5t-136.5 324.5zM395 1747q0 49 32.5 82t80.5 33t80.5 -33t32.5 -82q0 -46 -33 -79.5t-80 -33.5t-80 33.5t-33 79.5zM723 1747 q0 49 32.5 82t80.5 33q47 0 79.5 -33t32.5 -82q0 -46 -32.5 -79.5t-79.5 -33.5t-80 33.5t-33 79.5z" />
<glyph unicode="&#xfd;" horiz-adv-x="1044" d="M0 1489h180l340 -725l344 725h180l-446 -903v-586h-158v592zM375 1700l221 227l94 -94l-223 -223z" />
<glyph unicode="&#xfe;" horiz-adv-x="1224" d="M209 0v1489h160v-291h321q189 0 320 -128.5t131 -313.5q0 -121 -59.5 -223.5t-163.5 -162t-228 -59.5h-321v-311h-160zM369 455h311q134 0 217.5 88t83.5 213q0 128 -84 213.5t-217 85.5h-311v-600z" />
<glyph unicode="&#xff;" horiz-adv-x="1044" d="M0 1489h180l340 -725l344 725h180l-446 -903v-586h-158v592zM254 1747q0 49 32.5 82t80.5 33q47 0 79.5 -33t32.5 -82q0 -46 -32.5 -79.5t-79.5 -33.5t-80 33.5t-33 79.5zM582 1747q0 49 32.5 82t79.5 33q48 0 80.5 -33t32.5 -82q0 -46 -33 -79.5t-80 -33.5t-79.5 33.5 t-32.5 79.5z" />
<glyph unicode="&#x152;" horiz-adv-x="1912" d="M70 745q0 152 58.5 289.5t157 237.5t236 158.5t289.5 58.5h1018v-143h-684v-504h610v-144h-610v-555h684v-143h-1018q-152 0 -289.5 59t-236 158.5t-157 237.5t-58.5 290zM219 745q0 -164 79.5 -302.5t217.5 -219t301 -80.5h170v1203h-170q-122 0 -233 -47.5t-191 -127.5 t-127 -191.5t-47 -234.5z" />
<glyph unicode="&#x153;" horiz-adv-x="1912" d="M70 745q0 152 58.5 289.5t157 237.5t236 158.5t289.5 58.5h1018v-143h-684v-504h610v-144h-610v-555h684v-143h-1018q-152 0 -289.5 59t-236 158.5t-157 237.5t-58.5 290zM219 745q0 -164 79.5 -302.5t217.5 -219t301 -80.5h170v1203h-170q-122 0 -233 -47.5t-191 -127.5 t-127 -191.5t-47 -234.5z" />
<glyph unicode="&#x178;" horiz-adv-x="1028" d="M0 1489h178l344 -735l332 735h174l-696 -1489h-172l278 582zM250 1747q0 49 32.5 82t79.5 33q48 0 80.5 -33t32.5 -82q0 -46 -33 -79.5t-80 -33.5t-79.5 33.5t-32.5 79.5zM578 1747q0 49 32.5 82t79.5 33q48 0 80.5 -33t32.5 -82q0 -46 -33 -79.5t-80 -33.5t-79.5 33.5 t-32.5 79.5z" />
<glyph unicode="&#x2c6;" horiz-adv-x="694" d="M96 1651l252 229l252 -229l-82 -86l-170 157l-172 -157z" />
<glyph unicode="&#x2dc;" horiz-adv-x="835" d="M86 1616q0 94 51 157.5t135 63.5q48 0 92 -21t71 -46t61.5 -46t66.5 -20q39 0 58.5 32.5t19.5 78.5h109q0 -93 -51.5 -158t-135.5 -66q-48 0 -92.5 21t-71.5 45.5t-61.5 45.5t-65.5 21q-36 1 -56.5 -29.5t-20.5 -78.5h-109z" />
<glyph unicode="&#x2000;" horiz-adv-x="968" />
<glyph unicode="&#x2001;" horiz-adv-x="1937" />
<glyph unicode="&#x2002;" horiz-adv-x="968" />
<glyph unicode="&#x2003;" horiz-adv-x="1937" />
<glyph unicode="&#x2004;" horiz-adv-x="645" />
<glyph unicode="&#x2005;" horiz-adv-x="484" />
<glyph unicode="&#x2006;" horiz-adv-x="322" />
<glyph unicode="&#x2007;" horiz-adv-x="322" />
<glyph unicode="&#x2008;" horiz-adv-x="242" />
<glyph unicode="&#x2009;" horiz-adv-x="387" />
<glyph unicode="&#x200a;" horiz-adv-x="107" />
<glyph unicode="&#x2010;" horiz-adv-x="833" d="M121 698v144h592v-144h-592z" />
<glyph unicode="&#x2011;" horiz-adv-x="833" d="M121 698v144h592v-144h-592z" />
<glyph unicode="&#x2012;" horiz-adv-x="833" d="M121 698v144h592v-144h-592z" />
<glyph unicode="&#x2013;" horiz-adv-x="1009" d="M131 698v144h770v-144h-770z" />
<glyph unicode="&#x2014;" horiz-adv-x="1366" d="M139 698v144h1125v-144h-1125z" />
<glyph unicode="&#x2018;" horiz-adv-x="550" d="M147 1298q0 97 75.5 161.5t174.5 66.5l6 -84q-37 -2 -69.5 -15t-44.5 -34q57 0 85.5 -31t28.5 -78q0 -51 -35 -89t-89 -38q-53 0 -92.5 40t-39.5 101z" />
<glyph unicode="&#x2019;" horiz-adv-x="546" d="M143 1399q0 51 36 89t91 38q53 0 92 -40.5t39 -101.5q0 -96 -75 -160t-176 -67l-5 84q35 2 68 15.5t45 33.5q-57 0 -86 31.5t-29 77.5z" />
<glyph unicode="&#x201a;" horiz-adv-x="546" d="M143 82q0 50 36 88.5t91 38.5q53 0 92 -40t39 -103q0 -96 -75 -160.5t-176 -67.5l-5 86q34 0 67.5 13.5t45.5 33.5q-56 0 -85.5 32t-29.5 79z" />
<glyph unicode="&#x201c;" horiz-adv-x="671" d="M57 1298q0 97 76.5 161.5t177.5 66.5l4 -84q-36 -2 -68.5 -15t-43.5 -34q57 0 85.5 -31t28.5 -78q0 -51 -36 -89t-91 -38q-53 0 -93 40t-40 101zM356 1298q0 96 76 161t174 67l4 -84q-35 -2 -67.5 -15t-42.5 -34q55 0 84.5 -31.5t29.5 -77.5q0 -51 -37 -89t-92 -38 q-51 0 -90 40t-39 101z" />
<glyph unicode="&#x201d;" horiz-adv-x="671" d="M57 1399q0 51 36.5 89t90.5 38q52 0 91.5 -41t39.5 -103q0 -96 -75.5 -159.5t-173.5 -65.5l-5 84q35 2 68 15t43 34q-55 0 -85 31.5t-30 77.5zM354 1399q0 51 36 89t91 38q52 0 92.5 -41t40.5 -103q0 -96 -76.5 -159.5t-177.5 -65.5l-4 84q36 2 69 15t44 34 q-57 0 -86 31.5t-29 77.5z" />
<glyph unicode="&#x201e;" horiz-adv-x="819" d="M154 82q0 46 32.5 81.5t83.5 35.5q48 0 84.5 -37.5t36.5 -95.5q0 -89 -69 -147.5t-160 -61.5l-6 77q33 2 62.5 14.5t39.5 31.5q-51 0 -77.5 29.5t-26.5 72.5zM426 82q0 46 33 81.5t84 35.5q48 0 85.5 -37.5t37.5 -95.5q0 -89 -70 -147.5t-164 -61.5l-4 77q33 2 63 14.5 t41 31.5q-52 0 -79 29.5t-27 72.5z" />
<glyph unicode="&#x2022;" horiz-adv-x="886" d="M201 723q0 101 70.5 169.5t170.5 68.5q102 0 173 -68.5t71 -169.5q0 -100 -71.5 -172t-172.5 -72q-99 0 -170 72t-71 172z" />
<glyph unicode="&#x2026;" horiz-adv-x="1261" d="M152 84q0 49 32.5 82t79.5 33q48 0 80.5 -33t32.5 -82q0 -46 -33 -79.5t-80 -33.5t-79.5 33.5t-32.5 79.5zM518 84q0 49 32.5 82t80.5 33q47 0 79.5 -33t32.5 -82q0 -46 -32.5 -79.5t-79.5 -33.5t-80 33.5t-33 79.5zM885 84q0 49 32.5 82t79.5 33q48 0 80.5 -33t32.5 -82 q0 -46 -33 -79.5t-80 -33.5t-79.5 33.5t-32.5 79.5z" />
<glyph unicode="&#x202f;" horiz-adv-x="387" />
<glyph unicode="&#x2039;" horiz-adv-x="636" d="M96 774l281 318h141l-280 -318l280 -315h-141z" />
<glyph unicode="&#x203a;" horiz-adv-x="636" d="M119 459l280 315l-280 318h141l281 -318l-281 -315h-141z" />
<glyph unicode="&#x205f;" horiz-adv-x="484" />
<glyph unicode="&#x20ac;" horiz-adv-x="1146" d="M61 571v125h134q-2 16 -2 52q0 12 1 35t1 34h-134v125h148q30 187 117.5 318.5t211.5 194.5t275 63q144 0 277 -84l-74 -119q-107 57 -201 57q-189 0 -304.5 -117t-152.5 -313h609v-125h-625q0 -11 -1 -34t-1 -35q0 -36 2 -52h625v-125h-613q34 -205 150.5 -327.5 t310.5 -122.5q97 0 201 55l74 -121q-135 -82 -277 -82q-154 0 -280 65.5t-213.5 202.5t-114.5 330h-144z" />
<glyph unicode="&#x2122;" horiz-adv-x="1007" d="M61 1407v82h357v-82h-133v-356h-88v356h-136zM510 1051v438h65l148 -234l151 234h72v-438h-90v276l-133 -209l-125 199v-266h-88z" />
<glyph unicode="&#x25fc;" horiz-adv-x="1484" d="M0 0v1485h1485v-1485h-1485z" />
</font>
</defs>
</svg>
